/* XPM */
static char *result[] = {
/* columns rows colors chars-per-pixel */
"32 32 190 2 ",
"   c #46661C",
".  c #46671C",
"X  c #47671E",
"o  c #47681C",
"O  c #47681F",
"+  c #48691C",
"@  c #48681D",
"#  c #496B1C",
"$  c #496A1D",
"%  c #496B1D",
"&  c #48681E",
"*  c #48691E",
"=  c #48691F",
"-  c #49691F",
";  c #486A1E",
":  c #496A1E",
">  c #496A1F",
",  c #4A6B1F",
"<  c #4A6C1F",
"1  c #496920",
"2  c #496A20",
"3  c #4A6A20",
"4  c #4A6B20",
"5  c #4B6B20",
"6  c #4A6A21",
"7  c #4A6B21",
"8  c #4B6B21",
"9  c #4B6B22",
"0  c #4B6B23",
"q  c #4A6C20",
"w  c #4B6C20",
"e  c #4B6D20",
"r  c #4B6C21",
"t  c #4B6D21",
"y  c #4B6C22",
"u  c #4C6D21",
"i  c #4C6F20",
"p  c #4C6E21",
"a  c #4D6E21",
"s  c #4D6F21",
"d  c #4C6C22",
"f  c #4C6D22",
"g  c #4C6C23",
"h  c #4C6D23",
"j  c #4D6D23",
"k  c #4C6E22",
"l  c #4D6E22",
"z  c #4D6F22",
"x  c #4D6E23",
"c  c #4D6F23",
"v  c #4E6F22",
"b  c #4E6F23",
"n  c #4C6C24",
"m  c #4D6D24",
"M  c #4D6E24",
"N  c #4D6F24",
"B  c #4E6E24",
"V  c #4E6F24",
"C  c #4E6E25",
"Z  c #4E6F25",
"A  c #4F6F25",
"S  c #4E6F26",
"D  c #4F6F26",
"F  c #4F6F27",
"G  c #4E7022",
"H  c #4E7023",
"J  c #4F7023",
"K  c #4E7123",
"L  c #4F7123",
"P  c #4E7024",
"I  c #4F7024",
"U  c #4F7124",
"Y  c #4F7025",
"T  c #4F7125",
"R  c #4F7224",
"E  c #4F7026",
"W  c #4F7126",
"Q  c #4F7027",
"!  c #507124",
"~  c #507125",
"^  c #507224",
"/  c #507324",
"(  c #517324",
")  c #507225",
"_  c #517225",
"`  c #507325",
"'  c #517325",
"]  c #507026",
"[  c #507126",
"{  c #507027",
"}  c #507127",
"|  c #517127",
" . c #507226",
".. c #517226",
"X. c #517326",
"o. c #507227",
"O. c #517227",
"+. c #517327",
"@. c #527326",
"#. c #527327",
"$. c #527525",
"%. c #527426",
"&. c #527427",
"*. c #537427",
"=. c #537527",
"-. c #537627",
";. c #547726",
":. c #547827",
">. c #557827",
",. c #517128",
"<. c #517129",
"1. c #517228",
"2. c #517328",
"3. c #517229",
"4. c #527328",
"5. c #527229",
"6. c #527329",
"7. c #537329",
"8. c #52722A",
"9. c #52732A",
"0. c #53732A",
"q. c #53732B",
"w. c #527428",
"e. c #537428",
"r. c #537528",
"t. c #527429",
"y. c #537429",
"u. c #537529",
"i. c #537628",
"p. c #53742A",
"a. c #53752A",
"s. c #53742B",
"d. c #547528",
"f. c #547529",
"g. c #547628",
"h. c #547629",
"j. c #547729",
"k. c #557729",
"l. c #54742A",
"z. c #54752A",
"x. c #54752B",
"c. c #55752B",
"v. c #54762A",
"b. c #55762A",
"n. c #55772A",
"m. c #54762B",
"M. c #55762B",
"N. c #55772B",
"B. c #56772B",
"V. c #55752C",
"C. c #55762C",
"Z. c #55772C",
"A. c #56772C",
"S. c #56772D",
"D. c #57772D",
"F. c #557828",
"G. c #557829",
"H. c #55782B",
"J. c #56782A",
"K. c #56792A",
"L. c #56782B",
"P. c #56792B",
"I. c #57792B",
"U. c #56782C",
"Y. c #57782C",
"T. c #57792C",
"R. c #57782D",
"E. c #57792D",
"W. c #577A2C",
"Q. c #57782E",
"!. c #587A2C",
"~. c #587B2C",
"^. c #587A2D",
"/. c #597B2D",
"(. c #58792E",
"). c #58782F",
"_. c #58792F",
"`. c #587A2E",
"'. c #597A2E",
"]. c #597B2E",
"[. c #597A2F",
"{. c #597B2F",
"}. c #5A7B2F",
"|. c #5A7C2E",
" X c #5A7D2F",
".X c #587930",
"XX c #5A7C30",
"oX c #5B7D30",
"OX c #5D7E32",
"+X c #5D7E33",
/* pixels */
"u.A.b.b 4.$.a x } 4.#.6.f.C k #.f.a 5.4.M.h.I } -.a D {.j 5 [ 4.",
"4.r.~ e. .r 4.@.y z.X.T.B 2.w.n.`.k.h.m.r.) w...4 4.w.u.D [ W.Z ",
"[.n.E b.p Y f s ,.I G 4.v w.g x Z Q N.[.T.| n.p I x p s.Z H u.z ",
"u.N p.+XU.J * D ].U X.N.' m e.h.~ 9 T.X.V 7.+XE.U ; D XX..U U.) ",
"% c ].u.X.h.) U.>.&.3 6.+.z.V = ^ M R $ f |.N.#.d.) L.:.&.6 p.X.",
"} , / f o.u.* a w.H 1.f > [ 4.I p.g } 6.w ( x V u.> l +.z } l , ",
"e.p.#.e.V.M.P y y G u.I z b.^.r.Y e.> ..y.&.4.x.m.I 7 h H h.~ l ",
"&.n.g 9.Q . Y n.u.4 H v.&.p &.#.x ) [  .n.h 3.}   Y B.v.r z e.+.",
"} ) [ T E > a. .Y V V 1.w t e.x.r + M 1...~ ~ Z , c.z.h C c 1.w ",
"(.C.R.z 6 ..g.&.p.Z.&.r h X r E | [ O.`.V.`.H 1 V i.r r X.+.f g ",
"y.).O.u.r.r.b ^ u <.x x f Z W. XC w.[ } ).O.a.h.b.X.~ 7 &.U u f ",
"y.  Z j H +.3 f U B.T.[ l.[ ) H.T.9.Y.C.  x M b r. .k r.b.g.[ z.",
"M 1.f.4 #.T. .V L.I [ w.y.V f +.j.f q.x { u.4 V z.V P h.f. .O.4.",
"x.n. .X.T &.H O.~ 4.I ^.+.A &.k.{.=...C.n.z +.h.X.V 4.L.U f T.2.",
"N.B. . .u b +.H j r.^ r.k A.Y ~ 1.z.B.E.T.#.P z [ [ ) V t &.h.p ",
"U.) j V 4 c & f y.p U N.' g ,.&.Y 2 [.M.) Y 4.[ z > H M I b N.X.",
"i q Y ..Y *.) m.F.#.E U.X.7.4.Y ` C =.# 4 E.E.C.r.X.b.&.u y R.X.",
"V U x - Y h.l ' K.Y g U f [ { & ..w [ ] l G.g k y.z w.n.~ j ~ x ",
"4.E ' X.Q.S.7 2 x G u.u u M.A.#.x b V 4.Z ' ~ C.R.r 1 j z &.x t ",
"u.'.} } F y T M.~ e H y.&.) r.U b ) #...].1.E ,.y P &.) H k V w.",
"1.Y l 1.[ o O.U.} 9 p v.) p ~ e.H ~  .}  .f 1.[ , 4 #.V > [ 4.I ",
"A.[ R.H g ..&.w r I U h 4 > k h } t Y E.o.`.^ 0 Y ~ M V f f.V 7 ",
"b..XM.r.U ..%.U [ r.H V h h u.n...h.M w._.A.v. .Y =.f 8 &.P d h ",
"w.y ] [ z f.n.4 V f.%.y Z } i.g...b u.#.y Z 1.U B.#.~ T v.B.y Z ",
"B g O.8 G e.Y x z.#.h.#.z.D y I z z C.b 6 +.4 W oX) u r.h.L.e.y.",
"f.U.r...w.r.X.[ b.6 r M.y.m T &.B.H 1.y.n.r.U 6./ z j `.f., y.6.",
"y.r.....Y 4.e.*.c Z +.J.t v.1.h.m.v.Y.A.g.#.w.Y 9 4.[ ..s  .L.u ",
"}.k.S E.k b t H &.O.U y.U P j b C n M.'.P.F E.H U r z 8.x G z.U ",
") x D.OX(._ 4 M y.u.T N.X.D &.e.U g L.G f A.+X[.) q 3./.X.I U.) ",
"< z !.Y z b.~ X.J.~ & y.~ y.P @ ~ y U t k ~.O.l f. .h.;.X.O t. .",
"1.r ^ V z.v.= r I L z.w : 2.y.) Y f E 7.r ^ V 4.v.> r A l z.u : ",
"e.'.w.y.q.t...M V K +...! b.I.=.[ H 4  .`.y.1.0.6.X.h V U w...Y "
};
