/* XPM */
static char *result[] = {
/* columns rows colors chars-per-pixel */
"32 32 179 2 ",
"   c #000001",
".  c #04090B",
"X  c #061805",
"o  c #131E09",
"O  c #130F14",
"+  c #1B290B",
"@  c #283B0F",
"#  c #322C14",
"$  c #26351E",
"%  c #293B1A",
"&  c #3E341B",
"*  c #251A33",
"=  c #2B3D23",
"-  c #313A23",
";  c #373433",
":  c #473A1F",
">  c #2D4112",
",  c #2D421E",
"<  c #304717",
"1  c #32451C",
"2  c #2D4222",
"3  c #394424",
"4  c #3C4B25",
"5  c #3D5724",
"6  c #3B542A",
"7  c #3C5628",
"8  c #46671C",
"9  c #47681F",
"0  c #496A1E",
"q  c #6D6A12",
"w  c #434525",
"e  c #464B26",
"r  c #4F4929",
"t  c #524626",
"y  c #504B26",
"u  c #524A29",
"i  c #435727",
"p  c #435C2F",
"a  c #4C4833",
"s  c #504F36",
"d  c #565A3D",
"f  c #6A4F2E",
"g  c #65582C",
"h  c #675A3B",
"j  c #486424",
"k  c #4C6D23",
"l  c #4E6D2A",
"z  c #4F7024",
"x  c #517226",
"c  c #557827",
"v  c #537429",
"b  c #56782C",
"n  c #597A2E",
"m  c #486333",
"M  c #5F6839",
"N  c #557432",
"B  c #5C7D32",
"V  c #6C6729",
"C  c #7A742C",
"Z  c #646838",
"A  c #736337",
"S  c #776A39",
"D  c #74723C",
"F  c #672F60",
"G  c #505C40",
"H  c #6A6742",
"J  c #786941",
"K  c #485464",
"L  c #60667C",
"P  c #866E39",
"I  c #847636",
"U  c #8B733A",
"Y  c #85734A",
"T  c #89764C",
"R  c #8C794C",
"E  c #826E5A",
"W  c #8D7752",
"Q  c #8B4C6E",
"!  c #90842A",
"~  c #968B28",
"^  c #9C9127",
"/  c #8F8933",
"(  c #9B9134",
")  c #A69B2E",
"_  c #A39933",
"`  c #A99D37",
"'  c #ABA234",
"]  c #BEB43C",
"[  c #C8873B",
"{  c #E79E3E",
"}  c #ED9F3B",
"|  c #EDA237",
" . c #EEA13B",
".. c #F3A33E",
"X. c #938749",
"o. c #9C9346",
"O. c #958254",
"+. c #9D8A5B",
"@. c #A49A4A",
"#. c #BB9E4F",
"$. c #A68E57",
"%. c #A28D5D",
"&. c #A7955C",
"*. c #AA945B",
"=. c #B69D59",
"-. c #AEA641",
";. c #ABA54B",
":. c #B5AC48",
">. c #B9B242",
",. c #BEB451",
"<. c #9D8D62",
"1. c #A38E61",
"2. c #A69361",
"3. c #AC9A62",
"4. c #AF9A66",
"5. c #B39C63",
"6. c #B9A265",
"7. c #B9A57D",
"8. c #C5B747",
"9. c #CABB4B",
"0. c #F6A643",
"q. c #F2B657",
"w. c #FDBD57",
"e. c #FABE5B",
"r. c #C9AE66",
"t. c #C4AC6B",
"y. c #CCB267",
"u. c #D1B565",
"i. c #D1BA66",
"p. c #D3B569",
"a. c #D5B96D",
"s. c #D9BB6C",
"d. c #D5AD7F",
"f. c #CFB572",
"g. c #D7BA72",
"h. c #D9BE74",
"j. c #D4C942",
"k. c #D3C44C",
"l. c #D7CA4E",
"z. c #DFCE48",
"x. c #D8CA52",
"c. c #E5D547",
"v. c #E8DA4C",
"b. c #FCC05C",
"n. c #E3D451",
"m. c #F5E14F",
"M. c #FEEE4B",
"N. c #FEF74B",
"B. c #FFFD4A",
"V. c #F5E351",
"C. c #F9E952",
"Z. c #FFF154",
"A. c #FFFA51",
"S. c #DEC16B",
"D. c #E3C46A",
"F. c #EACB6E",
"G. c #FACB67",
"H. c #F9CE6B",
"J. c #FBD16D",
"K. c #E4C572",
"L. c #EDCD71",
"P. c #F5D475",
"I. c #FAD474",
"U. c #F8D877",
"Y. c #FBDA7B",
"T. c #697483",
"R. c #F477BD",
"E. c #EC11CF",
"W. c #EB00D8",
"Q. c #F266C2",
"!. c #7C838C",
"~. c #D79F8F",
"^. c #EEB88E",
"/. c #F28BAF",
"(. c #ED96AA",
"). c #F788BC",
"_. c #F6C888",
"`. c #C3C1BD",
"'. c #C6C5C2",
/* pixels */
"v b v k v x k k x v x v v k k x v k x v b v z z v k l n k k k v ",
"x v x v x k x x k v x b k v v v n b c v v z v z 0 v v v k v n k ",
"n b z b k k k z x z z v k v k k k k b b n v v k z k k v k k v k ",
"v k v B b z 0 z n z z c v k v v x k b v k v B B 3 = l n v z b x ",
"0 k b v x b z b c v j v x v k 0 z z x 0 k n b 4 I & % 1 x k v x ",
"z k z k x v 0 0 v k x z k x v x b k l v 0 x 4 U g # P : z x k 0 ",
"v v v v b v z k k k v x k x n v k x j x x e U g . U A m z v x k ",
"v v k v z 8 z b v k 4 % 1 = N p = 2 N 6 = U A . P A m v 0 k v x ",
"x z v z z z v z 7 2 ,.n.z.k.G ;.v.x.d :.x.h   C A m v k k z z k ",
"b b b k 0 z 7 , :.n.o./ ( V.c.C.>.I 9.N.N.z.k.A o n k 9 x v k k ",
"v N v v x i @.n.o.c.j.-.$ t v.-.o.] v.` V ( V.j.>.s l k x z k k ",
"v 8 k k p ;.Z.k.;.m.N.A.n.8.V.l.C.B.M.k.8.,.@.M.A.x.M v c v z v ",
"k v v i o ! (   C ) ! ~ ^ ` ^ _ ~ ! ~ _ ' _   C ^ ( r k v z v v ",
"v v x , O.&.+.6.&.<.2.2.%.2.1.1.2.2.%.2.+.%.5.3.1.<.a x z k b v ",
"b b x < y.G.G.e.G.b.H.b.H.b.J.e.J.e.J.e.J.w.H.e.I.q.f j k v v k ",
"b z k 2 [ 0.} | |  . .|  . . . . . .| |  . .} } ..{ g j z z c z ",
"z 0 z , [ J.e.H.e.H.e.H.b.H.e.H.e.H.e.H.e.H.e.H.w.L.H l k k n x ",
"z z k @ +.5.&.*.&.$.*.*.&.*.*.*.&.*.*.*.&.$.*.*.*.5.a x x k x k ",
"x z x m + h W Y R %.W Y R T T T T T T Y O.+.R T Y O - l k x k 0 ",
"v n x x 1 h.Y.U.h.=.L.Y.P.P.P.P.P.P.P.Y.f.#.P.Y.U.H k x x k k v ",
"v z k v 5 +.K.a.t T.7.D.L.F.F.F.F.F.L.t.; !.7.D.6.d l k 0 x x x ",
"v x n k k > g.O.  `.L #.Y.F.F.L.F.P.L.t * '.K a.H k k k k v x 0 ",
"v N v v x 7 3.4.u   q s.i.S.F.F.F.u.D.@.X   R 6.Z l k k x x k k ",
"v k x x k v 7 4.2.F ~.P.g u.U.P.P.a y._.Q E t.H l v x x v v k k ",
"z k x k k v x = i.).W.^.X.2.p.r.r.E a.Q.E._.D j B v k v v v v v ",
"v b x x x v x 6 =.(.Q._.U.+.S D J K.I./.R.d.Z k x k k n v 0 v v ",
"v v x x x v v v 2 6.s.s.i.s.a.g.a.s.g.s.g.s k k k x x x z x b k ",
"n v x n 0 k 0 x i 3 e w w y y r u w w e w - N z k k k v k 0 v x ",
"x k n B n x 0 k x v x b x z x x z k b z k v B n z k x n x x b x ",
"0 k b x x v x x b z 0 x x v z 0 z k z k z b x z v x v c x 0 x z ",
"x k x k v v 0 0 z z v 0 0 v v z z k z v k z k v b 0 k k k b k 0 ",
"x n v v v v x x z z v x x v b v z k k z b v v v x x k z z x x z "
};
