/* XPM */
static char *result[] = {
/* columns rows colors chars-per-pixel */
"32 32 203 2 ",
"   c #010101",
".  c #0D0401",
"X  c #050A02",
"o  c #0F0801",
"O  c #00000C",
"+  c #020D0F",
"@  c #150000",
"#  c #140C02",
"$  c #170609",
"%  c #121601",
"&  c #020C11",
"*  c #0C0E11",
"=  c #120012",
"-  c #120F10",
";  c #161111",
":  c #240203",
">  c #2C0000",
",  c #220A0B",
"<  c #3B0000",
"1  c #3D0D0D",
"2  c #3C1606",
"3  c #3D1906",
"4  c #3A140C",
"5  c #3E1A09",
"6  c #290013",
"7  c #300217",
"8  c #3F0E10",
"9  c #301817",
"0  c #2C2609",
"q  c #382406",
"w  c #3A2E07",
"e  c #3A2F0B",
"r  c #3C310A",
"t  c #27271F",
"y  c #333018",
"u  c #000038",
"i  c #292827",
"p  c #313433",
"a  c #440200",
"s  c #410B0E",
"d  c #570000",
"f  c #530E0E",
"g  c #431C03",
"h  c #42110D",
"j  c #421E08",
"k  c #5E140C",
"l  c #5E1E0D",
"z  c #440211",
"x  c #420D10",
"c  c #530E13",
"v  c #451716",
"b  c #571511",
"n  c #5D1311",
"m  c #5E1B19",
"M  c #600F00",
"N  c #661C00",
"B  c #63130E",
"V  c #631B0E",
"C  c #6B1F0E",
"Z  c #610D13",
"A  c #631413",
"S  c #631A12",
"D  c #661818",
"F  c #47260B",
"G  c #522209",
"H  c #46340C",
"J  c #5A3904",
"K  c #583508",
"L  c #5C3B09",
"P  c #492B19",
"I  c #542014",
"U  c #522E19",
"Y  c #5A3515",
"T  c #652003",
"R  c #672E06",
"E  c #64230C",
"W  c #682408",
"Q  c #662B0B",
"!  c #6A2D0B",
"~  c #643705",
"^  c #6B3506",
"/  c #6D3B07",
"(  c #673008",
")  c #6B340A",
"_  c #633E0A",
"`  c #6C390A",
"'  c #733E04",
"]  c #723E0A",
"[  c #652311",
"{  c #662B12",
"}  c #6B2E10",
"|  c #6B341A",
" . c #703310",
".. c #4F2E20",
"X. c #5F3F25",
"o. c #4C3230",
"O. c #63372A",
"+. c #663E36",
"@. c #5E4415",
"#. c #66480C",
"$. c #674E0D",
"%. c #744106",
"&. c #794C07",
"*. c #74420B",
"=. c #7D5806",
"-. c #644818",
";. c #675A19",
":. c #795713",
">. c #47671E",
",. c #4C611E",
"<. c #4A6A1F",
"1. c #586A1F",
"2. c #796616",
"3. c #7E6619",
"4. c #65721E",
"5. c #5C462F",
"6. c #62422E",
"7. c #724E22",
"8. c #6E5123",
"9. c #7C5F2E",
"0. c #4D6521",
"q. c #4D6E23",
"w. c #516723",
"e. c #526B25",
"r. c #526F2D",
"t. c #4F7024",
"y. c #517226",
"u. c #597627",
"i. c #537529",
"p. c #56782C",
"a. c #597A2D",
"s. c #536E39",
"d. c #5B7C31",
"f. c #577638",
"g. c #697324",
"h. c #787324",
"j. c #677839",
"k. c #747932",
"l. c #001C4F",
"z. c #3E4348",
"x. c #3F4B51",
"c. c #414148",
"v. c #5D4E49",
"b. c #49514F",
"n. c #464E55",
"m. c #484E55",
"M. c #474958",
"N. c #485152",
"B. c #5E5F59",
"V. c #674D4A",
"C. c #74664D",
"Z. c #7D6E54",
"A. c #586467",
"S. c #5C716F",
"D. c #5E747E",
"F. c #68686C",
"G. c #637377",
"H. c #757E79",
"J. c #865700",
"K. c #8C5E00",
"L. c #805D15",
"P. c #986B05",
"I. c #856415",
"U. c #896515",
"Y. c #866818",
"T. c #956D1D",
"R. c #83731E",
"E. c #A27500",
"W. c #8A782B",
"Q. c #A68535",
"!. c #B38A32",
"~. c #C68F03",
"^. c #E0A61F",
"/. c #AF8F52",
"(. c #B29A69",
"). c #BDA575",
"_. c #E7B34F",
"`. c #EBBF5B",
"'. c #CBAD77",
"]. c #E3BB68",
"[. c #677883",
"{. c #647A83",
"}. c #6A7C8A",
"|. c #628084",
" X c #7B8483",
".X c #868A84",
"XX c #8C8A87",
"oX c #858B89",
"OX c #888D8C",
"+X c #918C91",
"@X c #8D9391",
"#X c #989897",
"$X c #959699",
"%X c #A7A58F",
"&X c #ABADAC",
"*X c #B4ADA7",
"=X c #B1B0B5",
"-X c #C9B78D",
";X c #E4C580",
":X c #F6D996",
">X c #DED2B7",
",X c #F1DDB5",
"<X c #F7EACB",
/* pixels */
"i.p.i.q.i.i.r.r.y 3 G -.V.9 = $ : e o.P -.a -.v.0 e.e.a.q.q.q.i.",
"y.i.t.i.y.h.:.7.  !.]./.%X!.P.H ).Q.>XC.~._.'.#X  8.e.i.y.y.a.q.",
"a.p.t.p.w.W.K.J.% ~.`.E.XX9.^.;X%XE.,Xl.a :X@X  5.J.:.i.t.t.i.q.",
"i.q.i.d.f.R.P.T.J '.<X*X#XQ.-X/.).(.<Xu J <X$X  9.P.2.d.t.t.p.y.",
">.t.p.i.t.h.' | d .X=X=X@X=.H O OX.X&X  o.=XB.  Y ! @.i.y.q.i.t.",
"t.q.t.q.y.g._ G U @     @ 6 j F @ >   P g   a U I ` #.y.t.t.q.q.",
"i.i.y.i.p.h.L , G X.6.6.5.J Y Y ......s , i ; #   $.I.q.t.i.t.q.",
"t.p.q.i.t.2.L s  .&.%.' ' ' *.*.' ) V Z h     %   $.:.p.<.t.y.y.",
"i.t.t.t.q.R._ 1 ! ' ' ] / ` ` / ] ` { Z x O . #   $.L.q.q.t.i.<.",
"p.p.p.t.q.R._ 1 ! ] *.*.] ] ] ^  .! ! B s     #   $.L.<.y.y.q.q.",
"i.p.y.i.i.R._ 1 } ) ) ` ` / ` ~ ` ! { A h     # X $.L.<.y.y.q.q.",
"i.>.t.q.t.R._ x ) ` ` ^ ` ) ) ` ] ! S D h     #   $.3.i.i.y.y.i.",
"q.r.i.q.y.h.L x ! ( R / ` ` ` R ! ! S d < +   # X $.Y.i.i.y.y.y.",
"i.p.y.y.y.u.L 5 Q ! ! ^ ) ( ) ( R { M V.F.    #   -.g.i.y.q.p.i.",
"i.p.y.y.q.e.I.F l K { R R ! R ! { N +.F.G.N.t   e I.q.q.<.y.i.q.",
"p.t.q.t.<.q.I.5 I R ! ! R ( ( Q { N V.b.z.G.t   H U.<.t.t.t.p.y.",
"<.q.q.y.e.u.U.q m ! ! R ( R Q ! { N +.A.c.z.p   r Y.e.y.q.<.a.y.",
"t.y.q.<.t.u.Y.5 b Q ( ! R R { Q } N X. XA.  .   w I.e.p.y.q.t.t.",
"y.y.y.y.p.d.U.3 f V Q Q Q Q { W ! T O.A.c.  -   w I.,.q.t.y.q.q.",
"i.a.y.r.q.u.U.3 c E Q { E W Q Q Q [ l < >   .   w I.w.y.t.q.t.y.",
"i.t.q.i.i.1.U.3 c S W [ G W Q V [ E V A h   o   w L.w.q.>.t.y.y.",
"i.t.p.q.<.u.U.2 f V E E E V C [ V E B Z x   #   w U.0.e.t.y.t.q.",
"i.p.p.i.y.u.U.4 f C l S [ E C [ V V S A 8   o   w U.,.q.y.t.q.q.",
"i.q.i.q.t.a.U.3 f D S V V V V l S D V V 8   o   w U.q.t.i.i.q.q.",
"q.q.t.q.q.i.2.2 b Z n S S S A V V V C D x   #   q Y.<.i.i.p.y.i.",
"i.p.i.i.i.y.k.L z Z S S k V A A S A s 1 ,   o   -.2.t.a.i.<.i.i.",
"i.i.e.y.q.r.k.:.: A n A Z A n c 4 ,         . X Y.;.t.t.q.t.p.q.",
"d.i.y.p.q.q.4.:.7 m D D v v ; & + & * - * * - & U.;.t.i.t.t.i.t.",
"t.q.p.d.p.y.4.&.@ d : @                       X K.$.y.a.t.t.p.t.",
"<.t.p.t.q.i.j.C.M.M.x.n.m.m.n.n.n.n.n.n.n.n.n.x.Z.j.p.y.y.>.y.y.",
"i.q.t.t.i.p.S.|.[.{.{.{.D.D.D.G.{.[.D.D.D.{.{.[.}.{.s.t.t.p.t.<.",
"i.p.i.i.i.f..XXX.X.X+X$X$X$X$X@XoXoX$X$X$X$XOX X XH.s.t.t.y.t.t."
};
