/* XPM */
static char *result[] = {
/* columns rows colors chars-per-pixel */
"32 32 201 2 ",
"   c #000100",
".  c #090501",
"X  c #00010C",
"o  c #1C0C00",
"O  c #0E1804",
"+  c #1A1604",
"@  c #000219",
"#  c #040B1E",
"$  c #081312",
"%  c #162206",
"&  c #1D2B0B",
"*  c #22320C",
"=  c #28330D",
"-  c #2B3C15",
";  c #000526",
":  c #000037",
">  c #0E1B34",
",  c #261A20",
"<  c #1B253F",
"1  c #322C2A",
"2  c #38292B",
"3  c #343D25",
"4  c #302C34",
"5  c #491B00",
"6  c #462D25",
"7  c #562D24",
"8  c #55362C",
"9  c #493B3A",
"0  c #573B36",
"q  c #672F29",
"w  c #6C3B2C",
"e  c #723C27",
"r  c #2E4314",
"t  c #304615",
"y  c #354B17",
"u  c #31451A",
"i  c #385217",
"p  c #3A541A",
"a  c #3E591C",
"s  c #384524",
"d  c #3C5322",
"f  c #3F5924",
"g  c #56480F",
"h  c #46651D",
"j  c #47681E",
"k  c #496A1F",
"l  c #435B27",
"z  c #57443B",
"x  c #4B553A",
"c  c #525439",
"v  c #744431",
"b  c #456126",
"n  c #496521",
"m  c #4C6D23",
"M  c #4E6B2D",
"N  c #526D2A",
"B  c #4F7024",
"V  c #517226",
"C  c #547827",
"Z  c #537529",
"A  c #56782C",
"S  c #597A2E",
"D  c #5B7C31",
"F  c #74673F",
"G  c #041849",
"H  c #050950",
"J  c #00125B",
"K  c #003646",
"L  c #052C5A",
"P  c #273547",
"I  c #2C3652",
"U  c #0F3767",
"Y  c #375050",
"T  c #32526B",
"R  c #306F6E",
"E  c #474945",
"W  c #4E5154",
"Q  c #565552",
"!  c #774B41",
"~  c #655E4A",
"^  c #79534A",
"/  c #785B55",
"(  c #506F53",
")  c #6C6547",
"_  c #676356",
"`  c #716C52",
"'  c #575864",
"]  c #605E64",
"[  c #46726C",
"{  c #6A6766",
"}  c #73686A",
"|  c #7C746C",
" . c #796D72",
".. c #88482D",
"X. c #944629",
"o. c #884936",
"O. c #9D4838",
"+. c #995439",
"@. c #AE5134",
"#. c #B6613E",
"$. c #CE6A3E",
"%. c #8A5948",
"&. c #945A46",
"*. c #A75D4A",
"=. c #896659",
"-. c #936657",
";. c #916F55",
":. c #A66448",
">. c #B5674C",
",. c #A96957",
"<. c #B66A50",
"1. c #BC6E53",
"2. c #B87357",
"3. c #906D6D",
"4. c #84726A",
"5. c #897877",
"6. c #AC7C67",
"7. c #AA7B6F",
"8. c #C76944",
"9. c #C46C49",
"0. c #CD6D4A",
"q. c #CE744D",
"w. c #D6744B",
"e. c #CC6B54",
"r. c #C87655",
"t. c #D47B56",
"y. c #E37A4C",
"u. c #E07F52",
"i. c #C17E64",
"p. c #628E57",
"a. c #768853",
"s. c #BEB734",
"d. c #9A9A4D",
"f. c #97A154",
"g. c #9F9865",
"h. c #818A77",
"j. c #819F75",
"k. c #B98266",
"l. c #A78477",
"z. c #B39276",
"x. c #88A973",
"c. c #92A672",
"v. c #A9A66C",
"b. c #B3B067",
"n. c #D98059",
"m. c #EF8556",
"M. c #CA8565",
"N. c #DE8069",
"B. c #C8967B",
"V. c #E78D68",
"C. c #EB926B",
"Z. c #F79064",
"A. c #C4BF69",
"S. c #B9CB6A",
"D. c #D7D15A",
"F. c #C8CC6E",
"G. c #D9D566",
"H. c #E5DB71",
"J. c #D5E377",
"K. c #547486",
"L. c #6A7780",
"P. c #827980",
"I. c #688586",
"U. c #7A8D8F",
"Y. c #948B82",
"T. c #999995",
"R. c #A18B85",
"E. c #B08F83",
"W. c #A2958A",
"Q. c #B6968B",
"!. c #BA9C97",
"~. c #87A99A",
"^. c #98B79D",
"/. c #97A9AA",
"(. c #8BB4AE",
"). c #9EB9AF",
"_. c #B9A9A9",
"`. c #ACB0AC",
"'. c #A8B5BA",
"]. c #C8988B",
"[. c #D69E84",
"{. c #EFBD9D",
"}. c #CCB4AA",
"|. c #DABBB6",
" X c #F1BBA6",
".X c #E2B8B1",
"XX c #D1D28B",
"oX c #D9EA86",
"OX c #D7C2B0",
"+X c #EBC8AD",
"@X c #B6BAC7",
"#X c #CCBDC5",
"$X c #B5E2D7",
"%X c #CCCEC1",
"&X c #D8D3CC",
"*X c #CFD3D1",
"=X c #E1D2C5",
"-X c #EDE1DE",
";X c #F6EADA",
":X c #EAEDEC",
">X c #FFFFFE",
/* pixels */
"Z A Z m Z V m m B Z N b n 3 _ t a.F * B A Z B V Z m B S m k V N ",
"V Z V Z V m V V m Z h ~ 1 1 +X~ b.A.O i y N Z B m V V Z V V S B ",
"S A B A k m m B Z s % c.F.g H.G.D.s.D.F.~ i V k B m m Z m m Z m ",
"Z m Z D S V k m D c g.d.oXS.J.D.F.oXJ.S.g.d.h.* B h B D V V A V ",
"k B A Z V A V A C r XXf.( x.a.c.x.p.j.l v.XX) * Z V A C C k Z V ",
"B k B m V Z k k = E O ( ^.^.(.R [ ~.)./.K d._ * V k m V m V m k ",
"V Z Z Z Z Z B k b E R $XU.  I.(.).U.  U.*XI x s A m k m m C V m ",
"V A m Z V j B A C $ Y ~.).'./.Y Y ~.'.'.T.4   N h V A C m m Z V ",
"V B V B m m Z V m E | } '.K.T  .] Y I./.P 5.z B k Z A m m m V m ",
"S A A m m V V V Z , } _.>X/.T.|.|.Y.`.:X4.4.+ M m A m k V V m m ",
"Z D Z Z V C m V m { >XOXE.=X.X X X+X7.3.}.&XW A A V V m V V m m ",
"Z h m m V V k m i Q :X>X|.]. X{. X].6.}.&X&XE y V V m V A V B Z ",
"m N Z m V A V m u   L.:X>X;XB.i.i.N.}.=X%XT.T.u Z N m C Z V V V ",
"Z Z B Z B V m h %  .. K.@X-X7.>.>.i.OX).' 5.W.% h m Z S V k A Z ",
"A A B B m m B r k.].P.P   W %.X.X.o.'   @ q o.0 u V m m m C A k ",
"A B m B m B N * 1.C.i.6.7...,.<.9.2.5 / %.+.>.w * M V m m m A V ",
"k m m V B V p =.t.$.$.t.C.N.1.9.9.9.*.,.X.X...%.6 p Z V m m A V ",
"B V m k B A p ;.M.t.8.Z.m.y.0.r.9.0.@.@.>.o.&.%.7 d Z Z V m V m ",
"V V V V A A i l.[.1.*.r.C.V.1.:.:.<.*.*.%.e o.-./ p m m m C m m ",
"Z S V B M m i W.+X2.&.8 0 9 , @ @ 2 2 6 7 w ,.l./ p V m B m m V ",
"Z m m Z m h N O / %.-.z.0 ^ ^ ! ! 6 0 8 +.v =./ . l Z m k V V m ",
"A B A B m V V h a a v i.q.Z.u.>.t.n.*.+.+.6 a a m V m m m Z m m ",
"A S A Z V V V B V V z 6.m.m.#.O.q.Z.N.*.%.6 A Z B V m k Z B m m ",
"Z m V m B Z Z m m B o :.w.0.@.q +.w.e.O.v o M B Z Z V V Z Z m B ",
"m m V m m Z m m Z n z k.w.t.&.0 :.r.8.#.%.0 b B D V m Z Z A V Z ",
"Z A C V V C V V A n   ` B.6.-.c g B.].].z   B Z B B m A Z m Z Z ",
"Z Z B V V V Z V m r > ' } _ 2 l f 4.Y.P.P # s N m V B B k B A m ",
"S Z M A k V k M & X U U : ; ; d d : H J L <   * m k B Z B B Z B ",
"V m A D S V k - { a.J L G < > l d P T U J : ] ' r m V S V B A V ",
"k m S B m C V t h._.}.W. .4   p l   Y @X#X#X]. .y V V C V k V B ",
"Z m V m C C j - $ Y.R./ 9   l V B l X ] _.!.Q.. t j k B m A m k ",
"V S V Z Z V V j &     .   M S V B m l         * m V m B B V V B "
};
