/* XPM */
static char *result[] = {
/* columns rows colors chars-per-pixel */
"32 32 199 2 ",
"   c black",
".  c #050A01",
"X  c #01010A",
"o  c #0E1707",
"O  c #070917",
"+  c #162307",
"@  c #1F2C19",
"#  c #25380C",
"$  c #262C1A",
"%  c #2A3215",
"&  c #2A3E12",
"*  c #31331C",
"=  c #00002C",
"-  c #0B1729",
";  c #0F192D",
":  c #131B29",
">  c #091A3B",
",  c #182E2D",
"<  c #1E3129",
"1  c #172838",
"2  c #2B2D27",
"3  c #313129",
"4  c #273331",
"5  c #3A3B3F",
"6  c #5C0015",
"7  c #442B1F",
"8  c #7D122A",
"9  c #4E3028",
"0  c #523627",
"q  c #492E31",
"w  c #4B3838",
"e  c #553E37",
"r  c #7C3432",
"t  c #2E4313",
"y  c #2F4419",
"u  c #334B15",
"i  c #32451C",
"p  c #334819",
"a  c #354C1A",
"s  c #3A531A",
"d  c #3F5B1B",
"f  c #3D4727",
"g  c #3C5120",
"h  c #3C4834",
"j  c #396833",
"k  c #415D1D",
"l  c #45641C",
"z  c #47681E",
"x  c #496A1F",
"c  c #445721",
"v  c #435D22",
"b  c #544A30",
"n  c #475A31",
"m  c #7C412E",
"M  c #67453C",
"N  c #784D3A",
"B  c #665A3B",
"V  c #79523D",
"C  c #466322",
"Z  c #486523",
"A  c #4C6D22",
"S  c #4F7024",
"D  c #517226",
"F  c #547827",
"G  c #537529",
"H  c #56782C",
"J  c #597A2E",
"K  c #586C3B",
"L  c #5B7D31",
"P  c #0B1F46",
"I  c #000052",
"U  c #1C3149",
"Y  c #002B55",
"T  c #1C2F51",
"R  c #173659",
"E  c #2C2E43",
"W  c #25354C",
"Q  c #1A3A63",
"!  c #143C6A",
"~  c #583A4C",
"^  c #34534B",
"/  c #3B4854",
"(  c #3C7341",
")  c #484847",
"_  c #505251",
"`  c #6E4B4F",
"'  c #734E4F",
"]  c #695B4E",
"[  c #795349",
"{  c #795D57",
"}  c #58665F",
"|  c #4A7350",
" . c #597C54",
".. c #6F6B4F",
"X. c #667648",
"o. c #707D42",
"O. c #65715F",
"+. c #757656",
"@. c #6B736B",
"#. c #995D0F",
"$. c #AC4E1F",
"%. c #82442E",
"&. c #9E522F",
"*. c #8A4732",
"=. c #8C5439",
"-. c #9B5433",
";. c #B05223",
":. c #A45C3A",
">. c #BA5D35",
",. c #B4643C",
"<. c #8D394B",
"1. c #A83748",
"2. c #885849",
"3. c #94584A",
"4. c #AB5D41",
"5. c #A85E48",
"6. c #B64655",
"7. c #986256",
"8. c #957153",
"9. c #A86447",
"0. c #B96846",
"q. c #BE724E",
"w. c #A96B55",
"e. c #B46752",
"r. c #B47057",
"t. c #915769",
"y. c #A25365",
"u. c #987666",
"i. c #B2776A",
"p. c #A77B74",
"a. c #C46649",
"s. c #C7754E",
"d. c #D57748",
"f. c #C57859",
"g. c #D97A55",
"h. c #CD7A61",
"j. c #B78616",
"k. c #9E8427",
"l. c #B89D38",
"z. c #BDB130",
"x. c #98904B",
"c. c #968F5C",
"v. c #B18D51",
"b. c #80806B",
"n. c #868E76",
"m. c #968578",
"M. c #AD916B",
"N. c #B7AB69",
"B. c #ACBF73",
"V. c #DC8559",
"C. c #C69955",
"Z. c #EB875B",
"A. c #D4B54E",
"S. c #C8AB52",
"D. c #D1BB52",
"F. c #D48A69",
"G. c #D19175",
"H. c #E68A64",
"J. c #F19164",
"K. c #CAAC64",
"L. c #DACA4D",
"P. c #D8D448",
"I. c #D9CB51",
"U. c #DCD553",
"Y. c #E2DC4C",
"T. c #E5D65B",
"R. c #E5E05A",
"E. c #D9C662",
"W. c #D9D465",
"Q. c #D6CF7F",
"!. c #ECD970",
"~. c #D8E66E",
"^. c #DEE770",
"/. c #E3E77B",
"(. c #7B8B97",
"). c #878B88",
"_. c #968485",
"`. c #9E9087",
"'. c #A69391",
"]. c #9EA79E",
"[. c #B6A59E",
"{. c #8AA0AE",
"}. c #9AA7AD",
"|. c #9CA8B1",
" X c #A3A2A8",
".X c #BBB3A6",
"XX c #C7AA9D",
"oX c #EFB8A2",
"OX c #C4C0AF",
"+X c #DACDAE",
"@X c #E2D2BD",
"#X c #CFCDC8",
"$X c #D1CEC0",
"%X c #D4D7C7",
"&X c #D7DBD7",
"*X c #E6D6C1",
"=X c #E9EEEE",
"-X c #F8F5ED",
";X c #FEFEFE",
/* pixels */
"G H G A G D A A S D D H H i ..c + b d d G H S D G S D J A Z D D ",
"D G S G D A G D A F D g t B XXB N.B 4 ..Z S D D A S D G D D H D ",
"J H S H x A A A F Z g 2 N.l.!.S.W.#.Q.c.+ c G A S S A G S S G S ",
"G A G L J D z D J 2 c.E.W.z.Y.L.U.T.A.x.u.g L H S z S J S S H S ",
"z S J G D F D H J + x.U.P.U.Y.Y.R.I.A.C.G.t H D F S H G D Z G S ",
"D z S A D G z A D h +.B.W.R.Y.Y.U.I.l.C.8.h v A G x S S S D S S ",
"G G G G G G D x A f ,  .B.W.U.W.W.v.M.+.  n G G G S A A S F S A ",
"G G A G D z D G F C } ^   K o.X.X.+.X . _ u G A z S G D A S G S ",
"D D D S D z G D D l ) u.n.j ( ( | h ] m.] a D A x G G A A S S A ",
"J G J A z D H D G Z ).OXE./.~.^.!.K.v.G._.s S z S G A A S G A A ",
"G J D G G G A D A d &X;XM.k.D.D.j.#.u.+X$Xt D H G D D A D S A A ",
"G z A A S G z A S f (.=X-X@X.X.X[.*X@X%X].  Z A G S S D H G S G ",
"A G G A G H D A G b.&X(.=X;X;X;X;X=X#X X. : d S G S S F G S D G ",
"G G A D S D S D t { _.T I {.}.{.|.|.)   M { @ D S S D G S A H S ",
"H H D G A A S A & w.XX3.Y = 6 8 6   O q -.9.w A S G S S S D H S ",
"H S A A A A z k 0 q.d.a.p.E t.6.y.~ ~ 3.&.&.M y S z S S S S G S ",
"A A A S D D S C [ F.,.d.g.i.r 1.<.` 7.5.%.3.7.p D D G D A A H D ",
"A D A Z S G A k u.F.0.f.g.oXh.` ' w.e.3.r 2.2.u G A G G D A D A ",
"D S G G H H A s XXoX&.m y.2.{ _ ~ e r 9 3.i.p.i H A z A S D A A ",
"G J S S S A S A 3 u.3.i.[ M M M ` q 7 3.2.u.e a A S G S S A S D ",
"G S A G D z D H v c # F.J.V.f.f.r.h.0.:.7 s k S z A D S z D D S ",
"H S H A A D D x A S u F.Z.d.$.;.>.H.>.9.b F D A D D A A A G A A ",
"G L H G S D D S S F t w.H.V.4.*.a.H.,.=.% G G D A G A A D S A A ",
"G Z S S S D H A A F u [ s.0.=.7 >.s.-.V * x D D J D D S G H A A ",
"A A D A A G D A D D a ..f.f.=.0 r.f.q.N * G Z D J D A D G J G D ",
"G H G D G D D D A # @ 1 `.m.b s b m.'.w o % k G D S A J G x G G ",
"G G D D D D D G t O.} R W : O A < U T P 5 @.$ A x D D D A D H x ",
"L G S H A S x S y _ / R P > : l 4 Q ! Q 1 ^ 2 A D x S G A S G D ",
"D A H L J D z D d X 1 1 P 1 - Z , R ! ! T   a L D x D J D D H D ",
"z A J D A G D D J g X 1 - ; O g $ U Q R 1 a G A G D F G D z D D ",
"G A S A G G z A S S d t y t C S C t a p u D S D H z x S A H x x ",
"G J G G G G D A S D D D S F H S S S A S H G G G G D A S D D D D "
};
