/* XPM */
static char *result[] = {
/* columns rows colors chars-per-pixel */
"32 32 197 2 ",
"   c #000000",
".  c #02030E",
"X  c #190000",
"o  c #121903",
"O  c #000014",
"+  c #070D1A",
"@  c #260008",
"#  c #3A0003",
"$  c #2F1414",
"%  c #002400",
"&  c #032E01",
"*  c #192708",
"=  c #1D2D0B",
"-  c #003500",
";  c #1B201B",
":  c #252B16",
">  c #293B15",
",  c #090D22",
"<  c #0C162C",
"1  c #111B2B",
"2  c #00003C",
"3  c #031639",
"4  c #0A1A3B",
"5  c #111C3A",
"6  c #172222",
"7  c #1F322B",
"8  c #122234",
"9  c #1A263B",
"0  c #312926",
"q  c #36302F",
"w  c #312530",
"e  c #65002A",
"r  c #463C2C",
"t  c #513B2E",
"y  c #422B3B",
"u  c #463733",
"i  c #56373A",
"p  c #74342D",
"a  c #2E4415",
"s  c #324915",
"d  c #344B18",
"f  c #394B18",
"g  c #375018",
"h  c #3A531A",
"j  c #3F5B1C",
"k  c #3E4924",
"l  c #3E5720",
"z  c #425C1F",
"x  c #45641D",
"c  c #47681E",
"v  c #496A1F",
"b  c #475922",
"n  c #484D34",
"m  c #564339",
"M  c #575533",
"N  c #684439",
"B  c #75433F",
"V  c #456221",
"C  c #486721",
"Z  c #4C6D23",
"A  c #476128",
"S  c #4D6C28",
"D  c #526E2A",
"F  c #4F7024",
"G  c #4F7029",
"H  c #517226",
"J  c #557827",
"K  c #537529",
"L  c #57782C",
"P  c #597A2E",
"I  c #557231",
"U  c #5B7D32",
"Y  c #77682B",
"T  c #001E45",
"R  c #112746",
"E  c #2A3446",
"W  c #242D50",
"Q  c #513F60",
"!  c #4D4B4E",
"~  c #4F5744",
"^  c #5D5A50",
"/  c #784A45",
"(  c #645447",
")  c #72504A",
"_  c #614C50",
"`  c #735655",
"'  c #755C59",
"]  c #746753",
"[  c #75705E",
"{  c #756062",
"}  c #976900",
"|  c #8C503D",
" . c #8D7D3F",
".. c #B0653C",
"X. c #8D324D",
"o. c #AF3D4F",
"O. c #865142",
"+. c #965E4F",
"@. c #B1495F",
"#. c #9E624E",
"$. c #8F675E",
"%. c #9A6354",
"&. c #936C5B",
"*. c #977D5C",
"=. c #AC6949",
"-. c #AE6F52",
";. c #AF7355",
":. c #925566",
">. c #A15471",
",. c #876A66",
"<. c #966D68",
"1. c #867165",
"2. c #96796D",
"3. c #8F7E76",
"4. c #967271",
"5. c #A46E66",
"6. c #A07368",
"7. c #D97D5B",
"8. c #C07E6E",
"9. c #7A8559",
"0. c #A38C24",
"q. c #B6A32E",
"w. c #9F8741",
"e. c #BC8E51",
"r. c #B39155",
"t. c #B99856",
"y. c #B3A649",
"u. c #888369",
"i. c #998E65",
"p. c #9E9166",
"a. c #AD9A6A",
"s. c #BC9C60",
"d. c #AE8270",
"f. c #B88C7F",
"g. c #95B96B",
"h. c #9CBC6A",
"j. c #ADA96F",
"k. c #A5BB7E",
"l. c #ACBC79",
"z. c #B7BE77",
"x. c #C39F49",
"c. c #ED8B59",
"v. c #F28D5F",
"b. c #C7B74B",
"n. c #C4BA5B",
"m. c #D88767",
"M. c #D28C75",
"N. c #DB9276",
"B. c #ED9064",
"V. c #E68F70",
"C. c #E1997A",
"Z. c #C3A86C",
"A. c #C7BF60",
"S. c #DAC94A",
"D. c #CDD04F",
"F. c #DCD748",
"G. c #DDD954",
"H. c #E1DD49",
"J. c #E1CE5B",
"K. c #D8E84F",
"L. c #DDE052",
"P. c #EDE051",
"I. c #CFC570",
"U. c #CFD174",
"Y. c #E4D564",
"T. c #E4D07A",
"R. c #DFEB6B",
"E. c #E3EC77",
"W. c #8E7981",
"Q. c #8D8A8B",
"!. c #A68A88",
"~. c #B58781",
"^. c #A99485",
"/. c #B5B189",
"(. c #9BABB0",
"). c #AEAFBA",
"_. c #CA998C",
"`. c #C3AE81",
"'. c #DDAB98",
"]. c #E2AA8C",
"[. c #CABDA9",
"{. c #C0DD81",
"}. c #CADE84",
"|. c #DFD580",
" X c #E3E881",
".X c #DEC1B4",
"XX c #CED2BC",
"oX c #F7C8B6",
"OX c #CFD4CB",
"+X c #DFD4C5",
"@X c #CCD7DB",
"#X c #D2DCDC",
"$X c #D5DEE0",
"%X c #EFE8EB",
"&X c #F2EDEE",
"*X c #F2F1EC",
"=X c #FEFEFE",
/* pixels */
"K L K Z K H Z Z F K K K K S Z H J Z K K K K H H K v H P Z Z F K ",
"H K F K H Z K H Z K F L Z K H H P J K K H H K H v K K K H H P Z ",
"P L F L v F Z Z H F F H F K C x H Z S P P H K Z H Z v K Z F K Z ",
"K Z K U L H c H P F F K F Z n i.b ; ( f h D U P H c H P H H K H ",
"v Z P K H J H L K K v K f > M T.Y /.] n j.b K K K H L J H Z K H ",
"H v F Z H K v v K F x z r Z.y.Y.b.I. .T.j., k F K v Z H F H Z v ",
"H K K K K K H Z Z C u a.A.Y.q.P.F.S.J.S.0.r.n K K F v Z F K H Z ",
"H L Z K H c F K K Z o w.G.F.G.L.H.P.S.b.x.e.= F x H L L v Z H H ",
"H F H F F v K H F Z ~ z.n.D.K.K.K.K.J.t.t.*.^ g v K L Z F F H Z ",
"P L P Z Z H K H K K ~ 9.l.}.U.{.U.U.z.p.^.1.n s H H v Z H H Z Z ",
"K P K K H K F F Z D j 7 - % - - - - &     w 0 0 z K H v H H v Z ",
"K x Z Z F H v Z Z L C [ /.k.g.h.h.h.l.i.2.4.m 1.o H v K K K H K ",
"Z K K Z F P F F P Z g u.a.|.E.R.E. XI.s.;.d.1.&.r H H H K H H H ",
"K K F K F H F H H I = XX+X`.q.q.y.t.} p.[..X_.#.r Z K L H Z P H ",
"L L F K Z Z H F Z C a OX=X=X%X*X&X&X&X&X*XQ.| O.= H F F v H K Z ",
"L F Z Z Z Z c Z K n @ (.@X@X@X#X#X#X$X).    ( * v v F F H F L H ",
"Z Z Z H F H H K Z q f.%.X       # e @   ` r z D K H K K v v L K ",
"Z H Z v F L Z F g | =.-.<._.~.Q >.@.>.i &.m v Z K Z K K H F H Z ",
"H F K H P L Z z ] ].C.p N M.V.:.X.o.X./ $.t Z K K Z v Z v K Z v ",
"K P Z K Z Z K Z ^.oX].$.) N.v.V.+.B 5.<.,.i F K Z F K H H Z F K ",
"K Z Z K F c H S !.oX'.3._ 2.-.;.2.2.,.$     A H v v K F v K K F ",
"L F P F Z H H x !.oX~.` . . O O     . q { ' : Z F F Z Z v K F v ",
"K I K K F H K C : 1.3.u O.M.m.m.m.m.M.~.W.' u h F K v Z K H v Z ",
"H Z K F F K K Z V h j = M.B.c.c.c.7.8.y T E ! z K H H H K K Z F ",
"F Z H Z Z H H Z K H L h N =...=...6.,.2 W T 3 6 L H Z K K K K K ",
"K P K H H K H H K C v L g a s s s w ! 5 3 4 5 < C F Z P K v K K ",
"K H H H H H H K F F H L v K H K K l 8 R 3 4 5 , x H F H Z H K F ",
"P K H P Z Z Z F J H H H F F Z Z F V 9 R 4 4 1 + C Z Z K Z Z K H ",
"H Z L U P H v F J K G L H F H K F Z > < 8 8 1 . v v K P H H K H ",
"v Z P H Z K H H J F c H G K F c F Z l + < 1 + h K H K H H v K H ",
"H Z F Z K K v v F F J Z v H H H F Z G l a d h H L v Z H v K v v ",
"K P K K L K H Z F F G H G K L H F F Z F P K K K K H v H H K H H "
};
