/* XPM */
static char *result[] = {
/* columns rows colors chars-per-pixel */
"32 32 192 2 ",
"   c #000000",
".  c #040708",
"X  c #1A0200",
"o  c #040C13",
"O  c #040916",
"+  c #031711",
"@  c #2D0D1A",
"#  c #192608",
"$  c #1E2A15",
"%  c #2A3E0F",
"&  c #212C10",
"*  c #382A1C",
"=  c #263519",
"-  c #081223",
";  c #071529",
":  c #121E2B",
">  c #0E1C35",
",  c #04183B",
"<  c #0C183B",
"1  c #101F34",
"2  c #2D1933",
"3  c #16202D",
"4  c #28272A",
"5  c #302E2E",
"6  c #20253E",
"7  c #3A3D37",
"8  c #441607",
"9  c #522D1F",
"0  c #750C3B",
"q  c #452D2C",
"w  c #5F2A20",
"e  c #49332B",
"r  c #583A2D",
"t  c #453C35",
"y  c #543436",
"u  c #663034",
"i  c #2E4412",
"p  c #334C15",
"a  c #364E19",
"s  c #384F1B",
"d  c #3A531A",
"f  c #3B5418",
"g  c #385030",
"h  c #574607",
"j  c #415D1E",
"k  c #45651D",
"l  c #47681E",
"z  c #496A1F",
"x  c #425E20",
"c  c #534F33",
"v  c #5D5B3D",
"b  c #765E33",
"n  c #466421",
"m  c #496624",
"M  c #4C6D23",
"N  c #4E652C",
"B  c #4F7024",
"V  c #517226",
"C  c #557827",
"Z  c #537529",
"A  c #56782C",
"S  c #597A2E",
"D  c #5C7D32",
"F  c #101D48",
"G  c #01234E",
"H  c #1B2844",
"J  c #012553",
"K  c #25314B",
"L  c #5B3A44",
"P  c #762D43",
"I  c #6D3A4F",
"U  c #3B464D",
"Y  c #594948",
"T  c #4F5047",
"R  c #634B49",
"E  c #605248",
"W  c #765445",
"Q  c #6A5657",
"!  c #7F5E51",
"~  c #5F7043",
"^  c #7C774F",
"/  c #71655A",
"(  c #49566F",
")  c #686A69",
"_  c #746D6D",
"`  c #78787A",
"'  c #A37500",
"]  c #864A34",
"[  c #925136",
"{  c #B4593A",
"}  c #85682E",
"|  c #C0663F",
" . c #942D4D",
".. c #8F2E54",
"X. c #AE3B50",
"o. c #855345",
"O. c #8C5948",
"+. c #8F5851",
"@. c #AE5351",
"#. c #9A614A",
"$. c #8B6357",
"%. c #887A57",
"&. c #A7624A",
"*. c #B96B44",
"=. c #BF734D",
"-. c #A96B59",
";. c #AD705A",
":. c #8D546B",
">. c #A7516C",
",. c #8B6864",
"<. c #986B66",
"1. c #8C7C66",
"2. c #967566",
"3. c #947A6C",
"4. c #997B77",
"5. c #A8776B",
"6. c #B27D6D",
"7. c #B77D78",
"8. c #E27C56",
"9. c #C77E61",
"0. c #AFA12F",
"q. c #CCBC3A",
"w. c #D1CD3D",
"e. c #E1DA3F",
"r. c #B18C49",
"t. c #A98A5A",
"y. c #B79454",
"u. c #BDB057",
"i. c #958767",
"p. c #978D70",
"a. c #9A947E",
"s. c #AD8B66",
"d. c #BB9B68",
"f. c #B88878",
"g. c #98AF6C",
"h. c #9ABB6D",
"j. c #A6B97A",
"k. c #C5984E",
"l. c #E08156",
"z. c #CAB849",
"x. c #CEAA56",
"c. c #C1876C",
"v. c #C28775",
"b. c #EA8B66",
"n. c #F38D63",
"m. c #E08F70",
"M. c #C7BA69",
"N. c #D1BF7C",
"B. c #AAD679",
"V. c #B0D37C",
"C. c #CDC546",
"Z. c #D7C74A",
"A. c #DFDF47",
"S. c #DDCC55",
"D. c #E4DC4C",
"F. c #D7E55D",
"G. c #E2E045",
"H. c #D9D470",
"J. c #E0CB62",
"K. c #DDE261",
"L. c #DCEE76",
"P. c #E6E268",
"I. c #E3E97C",
"U. c #6E7D80",
"Y. c #797B84",
"T. c #9E898F",
"R. c #AD928A",
"E. c #BB9690",
"W. c #BBA68F",
"Q. c #B4B585",
"!. c #98A4AE",
"~. c #BAA3A6",
"^. c #B9B8B4",
"/. c #CA8D84",
"(. c #CF9685",
"). c #CCB09B",
"_. c #C2ADAB",
"`. c #D4BBA9",
"'. c #C7B5B2",
"]. c #EDADA4",
"[. c #EDB9B0",
"{. c #B7CA80",
"}. c #CFCE80",
"|. c #C0D086",
" X c #E2D181",
".X c #FAC2B7",
"XX c #D5BDC0",
"oX c #DBD3C9",
"OX c #E5E0D7",
"+X c #EDF0FB",
"@X c #FAFAF2",
"#X c #FEFEFE",
/* pixels */
"Z A Z M Z V M M B Z V Z Z N k M B j m V Z Z B V Z B V S M m B Z ",
"V Z B Z V M Z V M Z V A M B v ^ s g t x n B Z B M B V Z V V A B ",
"S A B A z M M M V V B M i i t.M.7 Q.* 7 T V Z M B B B V B B Z B ",
"Z M Z D S V l V S V B n i.t.u.S.u.H.h  X%.# N A B l B S V B Z B ",
"z B S Z V C V A Z s c E M.x.z.D.q.z.J.J.} $.a Z Z B A Z V M V V ",
"B z V m V Z z z Z p ^ H.P.S.w.F.A.G.Z.x.k.d.a M C l B B B V M M ",
"V Z Z Z Z Z B M M p   0.z.D.D.e.G.e.Z.x.y.b # Z Z B M B B Z B B ",
"V A M Z V l B Z Z p Q.}.H.K.F.F.K.P.z.y.d.p./ n k B Z V M B Z B ",
"V V V B B z Z V V i = ~ V.{.B.V.V.|.g.i.a.t $ n l Z Z B B B V M ",
"S Z A B M V Z V s q K g                 . T a M B Z l M B V M M ",
"Z D V Z Z V B B e 5.r R.Q.h.h.h.h.j.j.1.2.3.d Z Z B V M Z B M M ",
"Z l M M B V z z W 9.r i.N.L.L.L.L.I.M.d.s.2.p B Z B B Z Z Z B V ",
"m V Z m V S B M O.=.).`.t.z.q.q.C.0.' r.W.OXT f Z M B C Z B B Z ",
"Z A V V V V B B r s.$.^.@XoX_.'._.'.'.oX#X+X) n V B B Z B B S Z ",
"A A B V M B V B p Y ,.U !.+X#X#X#X#X#X#X#X^.) i V V B B M C Z B ",
"A B M B z B l M Z i 4 4   ( Y.Y.U.U._ ` ) ) @X` M m B B B B Z B ",
"z m B B V V V Z A Z m ! 7.2 0  .0 @ .   w -.`.R.% Z A V M M A V ",
"V B B z B Z B V A M m [ m.L :.X.>.I Q <.5.7.[ o.$ m V Z V M B M ",
"V B B Z A A z z M B V O.b.<.P >...+.&.&.8 ,.].6.W a z M M V B M ",
"Z S V V B M V A B z B r v.(.<.u O.m.*.&.w _..X/.<.d V B V M M Z ",
"V B B V V l V S B M m   X 9 4.T.f.c.#.O.y XX[.(.$.d V M z V V B ",
"A V A B z V V z M B & R R             O . ~.[.f.2.f M M M Z V m ",
"A S Z V V V V B B x * E.E.4.5.5.;.;.;.[ @ q E.2.Y f M z V V z M ",
"V m V Z M Z A m B a R Q Y ,.v.8.n.n.l.@.$.5 5 t % Z V V Z Z M B ",
"B M B m B A B M Z a K G G G R { 8.8.| &.$.= m M D V M Z Z A V Z ",
"V A Z Z V V V V m - , G F J Q O.] ] ] o.e f B Z V M M S Z z Z Z ",
"Z V Z V V V Z V k ; : < F , U + j j x x j V Z B M V V V z V Z M ",
"S A B S M M M B m ; > < < H 1 f B M A S A B A B B M M Z B B Z V ",
"V M A D S B z M m - 1 < < H 6 m B m A B M Z D S V z V S V V A B ",
"z M S V M A V V m o : > < > $ n B M V z M S V B C V Z Z V z V V ",
"V M V B Z A z m B = - 3 : - s V M M B V M B M Z Z z z V B Z M z ",
"Z S V V Z Z V M B V & O O $ A V V B M V A Z Z Z Z V M B B V V B "
};
