/* XPM */
static char *result[] = {
/* columns rows colors chars-per-pixel */
"32 32 193 2 ",
"   c black",
".  c #060A0D",
"X  c #180000",
"o  c #12180F",
"O  c #0C0F15",
"+  c #101319",
"@  c #380601",
"#  c #2D1A16",
"$  c #1C260A",
"%  c #1B2909",
"&  c #1D2C1B",
"*  c #382006",
"=  c #273A0F",
"-  c #28390E",
";  c #202613",
":  c #37281E",
">  c #273A12",
",  c #000A20",
"<  c #071626",
"1  c #11192D",
"2  c #1B1D2F",
"3  c #000032",
"4  c #041636",
"5  c #0A1B37",
"6  c #04133C",
"7  c #121E32",
"8  c #16163A",
"9  c #1E2A2D",
"0  c #072138",
"q  c #292D26",
"w  c #25293A",
"e  c #203632",
"r  c #3C3537",
"t  c #522302",
"y  c #592E1D",
"u  c #412E2B",
"i  c #58362D",
"p  c #563A2C",
"a  c #4A2C30",
"s  c #563735",
"d  c #643E2C",
"f  c #2D4213",
"g  c #334A15",
"h  c #34471A",
"j  c #344A1C",
"k  c #3A531B",
"l  c #3F5B1B",
"z  c #3A5520",
"x  c #415D1D",
"c  c #45651C",
"v  c #47681E",
"b  c #496A1F",
"n  c #425D27",
"m  c #5A552C",
"M  c #414D39",
"N  c #585C3D",
"B  c #72503D",
"V  c #446221",
"C  c #486622",
"Z  c #4C6D22",
"A  c #47642A",
"S  c #516E2D",
"D  c #4F7024",
"F  c #517226",
"G  c #547827",
"H  c #537529",
"J  c #57782C",
"K  c #597A2E",
"L  c #5C6C36",
"P  c #5B7C32",
"I  c #6D693B",
"U  c #002548",
"Y  c #152845",
"T  c #262B46",
"R  c #483747",
"E  c #5C3F41",
"W  c #0E4D55",
"Q  c #2B4750",
"!  c #1E406C",
"~  c #544944",
"^  c #5B5D41",
"/  c #484355",
"(  c #7B5144",
")  c #74524C",
"_  c #6E5A5B",
"`  c #775457",
"'  c #5B7841",
"]  c #6F704C",
"[  c #707143",
"{  c #415863",
"}  c #6A5961",
"|  c #5E676F",
" . c #6D6D64",
".. c #796565",
"X. c #657A7D",
"o. c #834C33",
"O. c #925038",
"+. c #865547",
"@. c #965446",
"#. c #A35741",
"$. c #806C45",
"%. c #97634F",
"&. c #8C635A",
"*. c #926557",
"=. c #AA6345",
"-. c #A86852",
";. c #B26E51",
":. c #BE7457",
">. c #B7795E",
",. c #886A6B",
"<. c #976A62",
"1. c #9C7265",
"2. c #A86E62",
"3. c #AD7862",
"4. c #B47C66",
"5. c #A67F77",
"6. c #C2764F",
"7. c #C97B5B",
"8. c #688947",
"9. c #57887E",
"0. c #6F967F",
"q. c #779976",
"w. c #898359",
"e. c #A19158",
"r. c #BDA443",
"t. c #B9A253",
"y. c #848F69",
"u. c #969B76",
"i. c #A79C6C",
"p. c #BA8477",
"a. c #A19C76",
"s. c #ADA765",
"d. c #DB885F",
"f. c #EC875D",
"g. c #C5AE48",
"h. c #C5836C",
"j. c #D58464",
"k. c #E68A6A",
"l. c #F0956C",
"z. c #ED9979",
"x. c #C0C551",
"c. c #D6C855",
"v. c #CFD25A",
"b. c #E4DC54",
"n. c #DDE15D",
"m. c #CDC968",
"M. c #D8D06D",
"N. c #CBC57B",
"B. c #D6CA7B",
"V. c #F4D577",
"C. c #D9E564",
"Z. c #698787",
"A. c #6B9080",
"S. c #758790",
"D. c #7BA9AA",
"F. c #7BB1AC",
"G. c #888485",
"H. c #968484",
"J. c #879D81",
"K. c #9B958F",
"L. c #929194",
"P. c #B89D8C",
"I. c #AC8C91",
"U. c #AF9795",
"Y. c #B29A97",
"T. c #878CA4",
"R. c #A494A3",
"E. c #8CA5A3",
"W. c #8AB0A9",
"Q. c #92ADB3",
"!. c #B7B8BA",
"~. c #D49E8C",
"^. c #CF9D90",
"/. c #DFA084",
"(. c #D1AA96",
"). c #E6AD91",
"_. c #CEB5A5",
"`. c #CAB5AB",
"'. c #D4BAB5",
"]. c #E5B8A9",
"[. c #F2BEAD",
"{. c #ADC385",
"}. c #EDC2AF",
"|. c #F8C1AB",
" X c #E8C2B6",
".X c #F6C4B1",
"XX c #B2BCC4",
"oX c #BADCD5",
"OX c #DDCFC8",
"+X c #C8CFDF",
"@X c #ECD8CF",
"#X c #EFEAEA",
"$X c #F3F7FB",
/* pixels */
"H J H Z H F Z Z F H F F H D Z F H Z H F H H F F H b F K Z Z Z H ",
"F H D H F Z H F b H F K Z H H H K H H H H F F F b H H H F F K Z ",
"K J D J b Z Z Z F D F H Z H Z D Z S H P J S H Z F Z b H Z D H Z ",
"H Z H P K F v F K D F H F V - A x - H F Z H P J F v F K F D J F ",
"b Z K H F G F J G F x q f h N.m ~ i.g M x J J H H F J G F Z H F ",
"F b D Z F H b b H D x a.w.  m.v.B.e.[ i.$ h l Z H b Z F D F Z b ",
"H H F H H H F Z Z f N I B.$.x.n.b.g.V.r.M u.; H H F b Z D H F Z ",
"F H Z H H v D H H z s.M.m.M.v.C.n.n.c.t.t.w.n F c D J H Z Z F F ",
"F D F D F b H F F h ^ {.' J.0.8.8.q.A.L N.[ j Z b H H Z Z Z H Z ",
"K J J Z b F H F H - J.] A.D.D.Z.9.F.D.S.N y.= c D H b Z F H Z Z ",
"H P H H F H D D A x   L.oXW X.Q.W.A.e +XT.  r l J F F Z F D b Z ",
"H c Z Z D F b Z k q.K.| D.W.W.Q w E.E.E.8 _.1.i # C Z F J H D H ",
"Z H H Z F J F C $ _.@XI.X.XXQ H.H.! XXK._ ].3.1.` - F F H F F F ",
"H H D F D F F % P.}.[.I.L.+XU. X].R.OXY.(._.B ) u l F H F Z J F ",
"J J F H Z Z l d ).[.|.Y.X ~..X|.|.).B _.@X .l n Z D D D b F H Z ",
"J Z Z Z Z Z - j.z.).^...!.OX~./.).I.'.`.G.= F D Z Z D D F D J F ",
"Z b D F D H g k.f.7.-.R Q.$X#X'.:.5.G..   S K H H S H H Z Z H F ",
"D D Z v D G - 7.k.;.O.` R 5 { ..#.( t s ~ V Z Z H Z H H F Z F Z ",
"H D H F J J x : ( p X 4.k.2.1.%.=.-.h.@.i V F H J Z Z Z D F Z Z ",
"H K S D D Z F H Z C n ,.4.k.z.j.6.*.&.y s ; A H Z Z F Z D Z F F ",
"H D Z F F v H K Z Z l s @ B +.) y @ +.,.,.} > F b Z F Z b F F F ",
"J D J D b F F b Z Z l 3.;.p s a E 4.&.r R / 2 g F F Z Z Z F Z Z ",
"H J H H F F H F F H l >.l.d.:.3.<.p._ 6 Y U Y . C H Z Z H D Z Z ",
"H Z F D Z H H b Z H b u o.o.d * o ..3 Y 5 6 7 + S F F D H H Z Z ",
"D Z F C D F F Z H F H V k k g n n , T 6 0 5 7 O H F Z H H J H H ",
"S J H F H H F F H Z Z H S Z D H H q T 4 7 0 4 j F Z Z J H b F H ",
"H H F F F G H F D D F J b H F H H 9 w 7 7 7 + C Z F F F b F H Z ",
"K J D J Z Z Z Z F F D F D D Z Z D & 1 1 1 < j D Z Z Z H F D H F ",
"F Z J P J F Z Z F H F J F D F F D C j j h j P J F b H K F D J F ",
"b F J F Z G F F J F b F F H F v F Z Z Z Z K F D H F H G F b F D ",
"F Z F Z H G v Z D D H b b H H D D Z Z H Z Z Z F H b Z Z Z H Z b ",
"G J F G S H F Z D D F F F H J H D Z Z D K H H H H F Z D F F F D "
};
