/* XPM */
static char *result[] = {
/* columns rows colors chars-per-pixel */
"32 32 194 2 ",
"   c black",
".  c #080902",
"X  c #170000",
"o  c #0C1605",
"O  c #161C07",
"+  c #030716",
"@  c #0E1817",
"#  c #151D18",
"$  c #240000",
"%  c #211012",
"&  c #371E18",
"*  c #142006",
"=  c #1C2B0B",
"-  c #23340E",
";  c #3A251E",
":  c #283B12",
">  c #33301C",
",  c #070726",
"<  c #0B1527",
"1  c #131A2D",
"2  c #000B34",
"3  c #0C1C34",
"4  c #041539",
"5  c #0A1A38",
"6  c #131D36",
"7  c #182437",
"8  c #1C3234",
"9  c #2D272A",
"0  c #21382D",
"q  c #3F3B28",
"w  c #302432",
"e  c #4B3227",
"r  c #56392D",
"t  c #643D36",
"y  c #2E431A",
"u  c #314614",
"i  c #324A15",
"p  c #33461A",
"a  c #354C19",
"s  c #394D1B",
"d  c #3A5017",
"f  c #3C551B",
"g  c #3E5A1B",
"h  c #004B2F",
"j  c #18453C",
"k  c #0D503C",
"l  c #394A23",
"z  c #3C5522",
"x  c #415D1D",
"c  c #45651D",
"v  c #48671F",
"b  c #47681E",
"n  c #496A1F",
"m  c #424C2D",
"M  c #435E21",
"N  c #494E37",
"B  c #6B453A",
"V  c #754D33",
"C  c #466321",
"Z  c #486422",
"A  c #4C6D22",
"S  c #4D6A2B",
"D  c #516D2B",
"F  c #4F7024",
"G  c #517226",
"H  c #557827",
"J  c #537529",
"K  c #56782C",
"L  c #597A2E",
"P  c #506D3B",
"I  c #567631",
"U  c #5B7D31",
"Y  c #192B4D",
"T  c #26284A",
"R  c #085653",
"E  c #35595C",
"W  c #224264",
"Q  c #347E77",
"!  c #5B4746",
"~  c #6C4E47",
"^  c #7A5548",
"/  c #6A5654",
"(  c #73654B",
")  c #7F605A",
"_  c #475965",
"`  c #576066",
"'  c #597579",
"]  c #6B6564",
"[  c #716D69",
"{  c #8E442C",
"}  c #83433A",
"|  c #944F36",
" . c #9E593A",
".. c #8C5846",
"X. c #965A46",
"o. c #A55E46",
"O. c #9C6248",
"+. c #8F6659",
"@. c #9C6758",
"#. c #A3654C",
"$. c #AB664F",
"%. c #A46752",
"&. c #AD6956",
"*. c #A26D5C",
"=. c #B47153",
"-. c #8A746A",
";. c #997268",
":. c #9A7E72",
">. c #B16F66",
",. c #B87965",
"<. c #B1776B",
"1. c #A17671",
"2. c #C57E64",
"3. c #798568",
"4. c #8A8F00",
"5. c #988836",
"6. c #9B9F35",
"7. c #A99121",
"8. c #91835F",
"9. c #9B9D5F",
"0. c #A2955C",
"q. c #B4A440",
"w. c #B7B644",
"e. c #858769",
"r. c #BB846D",
"t. c #A79768",
"y. c #AF8073",
"u. c #A09572",
"i. c #A4A765",
"p. c #B6AA6C",
"a. c #C3B552",
"s. c #C98768",
"d. c #D18D6E",
"f. c #C58A7A",
"g. c #C29B79",
"h. c #E38B66",
"j. c #CABC7C",
"k. c #B7C663",
"l. c #BCD06D",
"z. c #E6D953",
"x. c #E2E049",
"c. c #D1CF6A",
"v. c #DBC977",
"b. c #D3D475",
"n. c #E9E361",
"m. c #F0E46F",
"M. c #7C7C84",
"N. c #668E8B",
"B. c #74868C",
"V. c #6C918D",
"C. c #7A9898",
"Z. c #7AA09A",
"A. c #7BADB6",
"S. c #878287",
"D. c #9A8E8B",
"F. c #8C8A91",
"G. c #9E8C93",
"H. c #BB9691",
"J. c #B4A39A",
"K. c #889DA2",
"L. c #9A9DA4",
"P. c #89A4A2",
"I. c #85AAA8",
"U. c #97A1AF",
"Y. c #9BAAB3",
"T. c #89B8B9",
"R. c #B6A3A3",
"E. c #BCBBBA",
"W. c #E7AB94",
"Q. c #CAACA1",
"!. c #C8B3A7",
"~. c #DDB0A2",
"^. c #D4B7B1",
"/. c #DABEBA",
"(. c #E5AFA0",
"). c #E6B6A0",
"_. c #EDBAA5",
"`. c #F0BBAF",
"'. c #CDCA81",
"]. c #D8DA90",
"[. c #FCC5AF",
"{. c #E9C4B5",
"}. c #F2C4B5",
"|. c #92C3C6",
" X c #A6CFCC",
".X c #BFCBCE",
"XX c #C7C2C4",
"oX c #DBD8D0",
"OX c #E2C7C0",
"+X c #EBD0C9",
"@X c #F1D0C6",
"#X c #E5D8D5",
"$X c #EFEAE9",
"%X c #F0F1EF",
/* pixels */
"J K J A J G A A G J G J J A A G J A G J K G G D J F F U A Z F J ",
"G J G J G A G G A J G K A J J v s D M d G G G G A G G J G G K F ",
"L K F K n A A F J F A J d O f m e.* N 8.g y M A F F n J F F J F ",
"J A J U L G b G I A J K s e.# O ].i.c.#.! u.p S C n F U F F K F ",
"n F L J G J G K H F b z = e.p.X c.n.z.7.'.0.( t.- F K K G A J F ",
"G b F A G J b A H F A l 9.q.m.a.n.x.z.n.m.5.t.j.i n A F F F A A ",
"G J J J J J G n n F F i 5.b.6.w.w.l.k.w.4.i.v.. P F n A F J F F ",
"G K A J G b F K H n n y 3.3.Q T.V.h R A.T.k J.l.= F K K n F J F ",
"G F G F A A J G F A S o N N.A.E Z.Z.A.M.' Y.> -.l J J A A F G A ",
"L K K A A G J G I Z = -.` |. X' I.V.Z.C.B.U.  . g F Z A G G A A ",
"J I J J H G A G u ~ X.@XE.+ C.I.V.j 8 P.P.  [ R./ f F A G F A A ",
"J c A A F J b b 0 g.h.{.XX) #XK._ D.F.W .XS./.}.;.O S J K J F J ",
"A J J A G K G F : ^ ,.8.oX!.+X^.J.}./.G.XXF.OX(.<.^ = K J F G J ",
"J J G G G G F G G g x u 3.%XH.~.}._.[.(.} / OX`.<.@.; g F A K J ",
"K K G G A A G F A J F S . .X$XQ.W.).W.$.Q.F.Q.<.<.%...u A F J A ",
"K G A A A A b A J A F K l + L.oXy.,.^.+X#XL.t >.$.#.O.u F F K F ",
"n A G G F G F J H G F K s ] +   ;.=.R.L.M.  ; X.o.%.B u n n K G ",
"F F F b F J F F K F A F u g.,.s.| { $   X ..B O e q - J F A F F ",
"G F G G K K A A A F J A = $. .| &.2.r.*.@.%.^ S K A b F F G F n ",
"J L S G G A F K F A A - ~ ;.1.;.r X.s.%...B ; C A F G F F A F H ",
"J F A J F b G K F A x 9 :.H.f.d.*.  w w < e e C b A F F n F J F ",
"K F K F A F J n A v # 7 6 , $ } X.+.B e t @.^ x F G A F A G F A ",
"J I K J F F F F F i 8 Y Y T 2 B ....=.d.=.#.~ c F J A A J F A A ",
"J A J A F J K A F z 7 4 4 4 4 7 ! o & V V t % v J J F F J J A A ",
"A A G A A J G A J a < 7 5 5 5 1 o Z M u u i g F U F A J J K J J ",
"J K J G J G G G J C # 3 5 3 3 1 l A G J K J F J F F A K J n J J ",
"J J G G G J G H F F y < 1 3 3 < y J K K G G J F A G F F A G K n ",
"L J A L A A A A G G F + 1 1 1 < - S J L K F K F F A F J F F J G ",
"G A K U L G b F J K F z + < @ @ C A I A A K U L F A J L G F K G ",
"n A L G A J G G H F b G F G A b G A F A A L G A J G G H G b G F ",
"J A F A J J b A F F K n n G G G G A F G A F A J J n n F F J F n ",
"G L J J K J G A F F G G F K K G G A A G K J J J J G A F F G G F "
};
