/* XPM */
static char *result[] = {
/* columns rows colors chars-per-pixel */
"32 32 185 2 ",
"   c #000000",
".  c #060C02",
"X  c #00000B",
"o  c #170B0D",
"O  c #131E05",
"+  c #000116",
"@  c #000E16",
"#  c #0C111A",
"$  c #181715",
"%  c #230000",
"&  c #290F0F",
"*  c #281A1A",
"=  c #192707",
"-  c #1F2A15",
";  c #23340D",
":  c #2A3916",
">  c #020626",
",  c #021527",
"<  c #0C1526",
"1  c #0B162B",
"2  c #181824",
"3  c #111E3C",
"4  c #271E24",
"5  c #0C203D",
"6  c #1B213D",
"7  c #2B2327",
"8  c #2D3B22",
"9  c #353625",
"0  c #363822",
"q  c #383337",
"w  c #48342A",
"e  c #773428",
"r  c #2E4412",
"t  c #344B18",
"y  c #385119",
"u  c #3E5A1B",
"i  c #00443F",
"p  c #3C4A27",
"a  c #354730",
"s  c #215533",
"d  c #415E1D",
"f  c #45651C",
"g  c #47681E",
"h  c #496A1F",
"j  c #435C22",
"k  c #485A28",
"l  c #59463A",
"z  c #535739",
"x  c #63483B",
"c  c #7D4B36",
"v  c #7E523E",
"b  c #466322",
"n  c #496625",
"m  c #4C6D23",
"M  c #4A672B",
"N  c #516F2B",
"B  c #4F7024",
"V  c #517226",
"C  c #547827",
"Z  c #537529",
"A  c #56782C",
"S  c #597A2E",
"D  c #506433",
"F  c #5B7D32",
"G  c #5E763C",
"H  c #1C2343",
"J  c #213F46",
"K  c #243053",
"L  c #004A46",
"P  c #005D57",
"I  c #314F55",
"U  c #544545",
"Y  c #545544",
"T  c #5C5343",
"R  c #634A41",
"E  c #754C44",
"W  c #665F4A",
"Q  c #725D4D",
"!  c #6C5858",
"~  c #755652",
"^  c #5A6545",
"/  c #5E685E",
"(  c #63644F",
")  c #7F6C42",
"_  c #57716A",
"`  c #686A6C",
"'  c #746A68",
"]  c #6F737A",
"[  c #7B727E",
"{  c #973700",
"}  c #BF5A16",
"|  c #954B2A",
" . c #CD6936",
".. c #894D42",
"X. c #8A5947",
"o. c #935B48",
"O. c #885F50",
"+. c #9A6148",
"@. c #916155",
"#. c #936952",
"$. c #82745E",
"%. c #AB6041",
"&. c #B46751",
"*. c #896569",
"=. c #8D766E",
"-. c #AD7C6B",
";. c #BA796C",
":. c #B97E77",
">. c #C96A48",
",. c #D1795E",
"<. c #74884B",
"1. c #AE8533",
"2. c #BD983F",
"3. c #CAAF3E",
"4. c #968C47",
"5. c #898255",
"6. c #A58C5E",
"7. c #BB9A54",
"8. c #B6AF51",
"9. c #8C986C",
"0. c #9A916F",
"q. c #83817C",
"w. c #98837F",
"e. c #9A957B",
"r. c #B0966F",
"t. c #A58B70",
"y. c #BB8879",
"u. c #AEAB6B",
"i. c #B1A972",
"p. c #C6964B",
"a. c #DB8255",
"s. c #E3885F",
"d. c #CD8968",
"f. c #C39F6D",
"g. c #CF8974",
"h. c #D8987A",
"j. c #E88D64",
"k. c #D1BC6D",
"l. c #BBC172",
"z. c #D4C948",
"x. c #CAC357",
"c. c #E3DC4F",
"v. c #E1C85D",
"b. c #E6DA5A",
"n. c #E7E157",
"m. c #D1C263",
"M. c #CAD071",
"N. c #E3DF66",
"B. c #EAE369",
"V. c #628784",
"C. c #988A8D",
"Z. c #8C968E",
"A. c #989E9E",
"S. c #B28981",
"D. c #A19B94",
"F. c #9FB3AB",
"G. c #B1A3A4",
"H. c #B7B6AD",
"J. c #A4B5B2",
"K. c #D69A88",
"L. c #CEA993",
"P. c #E7A386",
"I. c #CBB7AA",
"U. c #CFB5B8",
"Y. c #E2BEA5",
"T. c #F4BBAA",
"R. c #E9BDB2",
"E. c #B6C496",
"W. c #B1C9B6",
"Q. c #C7C988",
"!. c #D2CC91",
"~. c #DFC6A5",
"^. c #D3C3BD",
"/. c #F3C6AB",
"(. c #C2CDCB",
"). c #DAD5C9",
"_. c #E3D7C9",
"`. c #E1D8D3",
"'. c #E9DCD7",
"]. c #C2E3DA",
"[. c #EDE1CB",
"{. c #F7E8D8",
"}. c #E9E7E0",
"|. c #F6F3E9",
" X c #FFFDF2",
/* pixels */
"Z A Z m Z V m m B Z V Z Z m m m C B B C Z Z V B V m B S m m m Z ",
"V Z V Z V m V V m Z B A B M p t G a u C Z V Z V g Z Z Z B Z S m ",
"S A B A h m m B N B m b U O i.u.( !.X n n Z A m V m m Z m B Z m ",
"Z m Z F S V g B F N u ; u.5.4.N.x.x.8.u.9 m F A V g V S V V Z V ",
"h m S Z V C V A C C z 9.l.B.3.c.n.c.b.m.4.5.l b Z V A C V m Z B ",
"V g B m V Z g m C m ^ E.<.8.N.n.z.z.c.1.v.k.$ k Z g B V B V m g ",
"Z Z Z Z Z Z V h m m a A.W.V.<.M.8.v.3.2.p.k.e.- Z V g m B Z V m ",
"V Z m Z V g B A C m / A.J.].i s 9.Q.7.p.2.) $.0 f V A A h B Z V ",
"V V V B B g Z V V B t ` J.F.` , P L $.t.f.6.4 d g Z Z B B m Z m ",
"S A A m m V Z V Z A V ` [ ] (._ L I > > Q t.T d B Z h m V V m m ",
"Z F Z Z V Z B V m N g C.U.H.{.Y.r.L.^.Q @   j Z Z V V h V V h m ",
"Z f m m V V g m V Z Z q U./.y.Y./.h.g.r.e.8 m m Z V h Z Z Z V Z ",
"m Z Z m V A V m C B m G.I.g.:.O.h.@.y.~._.T g B Z B B Z Z V V Z ",
"Z Z B V B Z B V V V n =.`.`.'.'.`.^.).`.D.; V A V B V A V h S V ",
"Z A B Z m m V B m V N   H. X|.|.).).H.Z.  B V h V V V m h V Z m ",
"A V m m g B g m Z m m 7 % ~ (._.).}.` % U m V V B g V m V B A V ",
"B h B B B V B A C V m ~ K.&.L.{.[.{.=.o.w F F Z Z V Z V m m S V ",
"B B m n B Z B V A B b X.j.,.} P.Y.h.{ o.l V m B Z B V A V m V m ",
"V B B Z S A m g B B N x h.d.%.>.}  .s.c w M V Z A m g m B V m h ",
"Z S V Z m m B Z V h m . R E +.j.a.s.&.& . m V N m B V V B m B Z ",
"V B m Z B g V A V m h k q J O.g.d.;.*.+ j m V V m g V m g V V B ",
"A B A B m V V m h V B m 9 $.O.T.R.S.! U u A B m B V B m m Z m m ",
"Z F A Z B V V B B Z B B u E -.~ *.E ..9 Z A Z V B V m m V B m m ",
"Z m m B B V A m B C V h y * :.-.e ..o.O M m N B Z Z V V Z Z m B ",
"m m V m m V V m Z Z Z k W q ..,.| | X.R r V m B F V m Z Z C Z Z ",
"Z A Z V V Z V V Z m d Y 0.' v ,.#.o.o.l   N B Z B B m S Z m Z V ",
"Z Z V Z V V Z V m m Z : * 1 + H G.w.! 2 : V V B m V B V B B Z m ",
"F Z m A m B m m Z Z m Z = $ 3 K X X > 1 M B A B B m B V m B Z B ",
"V m S F S V g V V Z V D ( q.H H 6 H 3 1 $ Z F S B m Z S V B A V ",
"h m S m m Z V V A V d z e.' > 3 5 3 5 5 # Z V B Z B C V V g Z V ",
"V m V m Z Z g h V m Z : o 2 1 1 < < < < - B m Z C h m B m Z m h ",
"Z S Z Z A Z V m m m V V d b n f d d u d A Z V Z V Z m B B Z B B "
};
