/* XPM */
static char *result[] = {
/* columns rows colors chars-per-pixel */
"32 32 194 2 ",
"   c #010101",
".  c #0C0100",
"X  c #03000F",
"o  c #01080E",
"O  c #130A01",
"+  c #0C1603",
"@  c #020816",
"#  c #160E1B",
"$  c #12151A",
"%  c #280000",
"&  c #231311",
"*  c #3C1F15",
"=  c #172406",
"-  c #1C2C0A",
";  c #1A2913",
":  c #282606",
">  c #28350D",
",  c #38340F",
"<  c #252B19",
"1  c #3B2919",
"2  c #253616",
"3  c #000425",
"4  c #000D2B",
"5  c #0C1526",
"6  c #081729",
"7  c #121A29",
"8  c #031D3D",
"9  c #19212B",
"0  c #003D27",
"q  c #162335",
"w  c #172038",
"e  c #29282C",
"r  c #3A2924",
"t  c #383529",
"y  c #242939",
"u  c #2F3737",
"i  c #3B3C37",
"p  c #46321D",
"a  c #722D0E",
"s  c #4A2C22",
"d  c #4E3827",
"f  c #4C363B",
"g  c #603620",
"h  c #633B33",
"j  c #2E4412",
"k  c #344C15",
"l  c #31461B",
"z  c #324918",
"x  c #3A541B",
"c  c #3B561A",
"v  c #3C5228",
"b  c #405D1C",
"n  c #45641D",
"m  c #48671D",
"M  c #47681E",
"N  c #496A1F",
"B  c #474626",
"V  c #415C22",
"C  c #474736",
"Z  c #584238",
"A  c #65412F",
"S  c #75422E",
"D  c #684838",
"F  c #774D3B",
"G  c #466222",
"H  c #496621",
"J  c #4C6D23",
"K  c #4D662C",
"L  c #4F6E29",
"P  c #506F29",
"I  c #4F7024",
"U  c #517226",
"Y  c #557827",
"T  c #537529",
"R  c #56782C",
"E  c #597A2E",
"W  c #5B7C31",
"Q  c #092E45",
"!  c #003D45",
"~  c #042555",
"^  c #1A3559",
"/  c #342F47",
"(  c #223B62",
")  c #433847",
"_  c #065262",
"`  c #2F5161",
"'  c #4A4849",
"]  c #585548",
"[  c #5B5A52",
"{  c #6B4C4B",
"}  c #6A574A",
"|  c #795848",
" . c #6A5B57",
".. c #7B5A56",
"X. c #74704D",
"o. c #68695B",
"O. c #4A556E",
"+. c #575661",
"@. c #6F5961",
"#. c #6B6776",
"$. c #737973",
"%. c #777C76",
"&. c #8A472C",
"*. c #924828",
"=. c #884D36",
"-. c #87533A",
";. c #9B5538",
":. c #A35B39",
">. c #A8603A",
",. c #C9653A",
"<. c #865548",
"1. c #985B44",
"2. c #8A5658",
"3. c #905A51",
"4. c #B25D43",
"5. c #886357",
"6. c #976355",
"7. c #A56548",
"8. c #BD704A",
"9. c #AC6456",
"0. c #AF705F",
"q. c #BA7758",
"w. c #8C6369",
"e. c #997A7A",
"r. c #A6746A",
"t. c #CC6E44",
"y. c #C47857",
"u. c #D97A53",
"i. c #E07B50",
"p. c #C17F6C",
"a. c #D67F6B",
"s. c #5E9152",
"d. c #79804E",
"f. c #709555",
"g. c #77886D",
"h. c #8D8856",
"j. c #B8914A",
"k. c #ACAE49",
"l. c #8F886F",
"z. c #B99A6E",
"x. c #AC8777",
"c. c #B29274",
"v. c #9EA768",
"b. c #EF8A5D",
"n. c #F38B57",
"m. c #C6B350",
"M. c #C68469",
"N. c #D58862",
"B. c #D08D6F",
"V. c #D69273",
"C. c #EC8B65",
"Z. c #EE906B",
"A. c #D2B372",
"S. c #ADCF7B",
"D. c #D3C347",
"F. c #DDC559",
"G. c #E9DB4F",
"H. c #E8DA5B",
"J. c #CDC06D",
"K. c #DBD564",
"L. c #C4C475",
"P. c #D7D07B",
"I. c #E2E468",
"U. c #706E80",
"Y. c #74868A",
"T. c #8E918C",
"R. c #8A849A",
"E. c #979593",
"W. c #BC8680",
"Q. c #B6A48E",
"!. c #8B97A8",
"~. c #979EA2",
"^. c #A5A8A3",
"/. c #B9B7BA",
"(. c #C89689",
"). c #D49283",
"_. c #DAA78B",
"`. c #C6AB9C",
"'. c #D8B29A",
"]. c #ECB799",
"[. c #D0BCAF",
"{. c #CABBB4",
"}. c #E5BAA9",
"|. c #ECBBAB",
" X c #B9C180",
".X c #B7C6AE",
"XX c #C5C386",
"oX c #CFC0B1",
"OX c #D1C1BD",
"+X c #C7CDCB",
"@X c #D7D6C9",
"#X c #E1D6C3",
"$X c #F3E9DE",
"%X c #F9F7F2",
/* pixels */
"T R T J T U J J U U U T T I J P T I U U T T U U T N U E J J I U ",
"U T I T U J T U J T U E I U T R E T T T T U T U N T T T J U E I ",
"E R I R N I J J U I J U H R H H I U R W R U T J U N I T J I T J ",
"T J T W R I m U E I I n X.j v o.z c G G U T W E U m U E U U T U ",
"N I R T U Y U T Y H B > XXL.X.S.: d h.> J E T U T U R Y U J T U ",
"I N I J U R N J T j l.h.B P.K.I.k.m.J.} B N J I U N J U I U J N ",
"T T T T T T I J m } v.L.L.k.H.G.H.H.m.A.C I U T R I N J I T U J ",
"U R J T U m I T P B S.d.v.I.I.D.F.F.j.A.} k U U m I R R N I U U ",
"I I U I U N T U H r $..Xg.s. Xk.K.k.j.z.Q.= T J N T R J J I U J ",
"E R R I N U T U I ] /.T.@X0 0 f.v.z.z.}   K J H I T N I U U J J ",
"T E U T T U I c l   +./.+XY.0 _ X , D c.[ I R T T U U N U I N J ",
"T M J J U T b r e.@.X U.O.~._ ! $.#.    e m J J T U J U R T U T ",
"J T T J U R H ..W.w.o./.!.%X`.X.OX[.E.^.  P J J T J J T T U U U ",
"T T I U I T M { r.0.| oX{.'.|.]._.c.#X^.[ u x L T J T R I J E U ",
"R R P T J I T - D 7.-.D |.W.(.].r.oX@X/.#X`.F { > x M J N U R N ",
"R J J J N J M J < s 5.p ..(.9.`.$X%XE.%X$X_.y.j.l.$.O J I I R U ",
"N J I I I U I R E c , > $.p.(.$X+X~.  y x.y.t.y.}.Q. .G J J T U ",
"I I I J I Y I I R P L c B F S E.`   6 # h 1.8.y.V.e.t J U J U J ",
"U I I U R R J H I I T J + 5.B.a ) { 2.3.d 1 p d p t j I J T J J ",
"R E I P P J P T I N J T c 5.V.8.).a.4.7.D P I V v I U U I J I U ",
"I I I P T N I T I I k z j <.V.8.C.b.t.7.A n < 7 # l U I N U T U ",
"R I R I J H H J I k F N.N.f 5   | 3.<.5.f + 4 w q @ x I N T J N ",
"T W R T l ' o.> c % q.n.b.x.3.6.s   .   C ..) 3 w 7 2 N U U J J ",
"U J I I O ~.{.  ' x.u.,.i.C.C.Z.M.r...h | r.e./ 4 9 5 G T T J J ",
"J J T J = #.R.~ ( _.).t.;.;.u.u.N.9.-.&.;.*.w.) 4 6 @ 9 T R T T ",
"T R T I = 8 O.( ~ @.|.M.h * S 1.;.&.*.:.*.4.<.7 3 / ' + T N T T ",
"T T I T V 6 Q ^ ( 3 ' ] = P , r S =.>.>.*.1.<.$ @ i %.v N U Y N ",
"W T I R J ; w ^ 8 y   z P I I N . F 7.7.-.g s j - e l.' U U T U ",
"U J R W E x 5 7 q 5 $ J T J U U N & Z A 1 V K E J < ' 2 U U R U ",
"J J E I J T 2 5 5 o n U I T I N I J N N m E U N U I P U U m U I ",
"I J I I T T H z z n T N N T T U J J I T J I J T T N N U J R N N ",
"T E P T T T T J J I U U U T R U U J J I E T P T T U J I U U U U "
};
