/* XPM */
static char *result[] = {
/* columns rows colors chars-per-pixel */
"32 32 198 2 ",
"   c #010001",
".  c #020408",
"X  c #0D1704",
"o  c #121B08",
"O  c #050917",
"+  c #1F0F17",
"@  c #0C121B",
"#  c #181819",
"$  c #34190F",
"%  c #211917",
"&  c #1D2C0A",
"*  c #1F300A",
"=  c #1C261D",
"-  c #24350E",
";  c #273B0E",
":  c #283616",
">  c #2B3E12",
",  c #03072A",
"<  c #0E1625",
"1  c #1A1C2A",
"2  c #000633",
"3  c #061638",
"4  c #141F3A",
"5  c #15233E",
"6  c #152839",
"7  c #262628",
"8  c #392E29",
"9  c #383A29",
"0  c #252733",
"q  c #36363B",
"w  c #43261B",
"e  c #462A26",
"r  c #532C20",
"t  c #41392C",
"y  c #4E382D",
"u  c #583A2D",
"i  c #493B34",
"p  c #513B34",
"a  c #5C3B33",
"s  c #6D3D2A",
"d  c #2E4312",
"f  c #354C16",
"g  c #334919",
"h  c #354D19",
"j  c #3A5417",
"k  c #3A531A",
"l  c #3E591B",
"z  c #004432",
"x  c #1C5834",
"c  c #3D4624",
"v  c #3C5221",
"b  c #3C4834",
"n  c #415D1E",
"m  c #44631E",
"M  c #47681C",
"N  c #496A1E",
"B  c #404329",
"V  c #425D21",
"C  c #564539",
"Z  c #4E5035",
"A  c #575135",
"S  c #6B5528",
"D  c #6C4034",
"F  c #6C443A",
"G  c #7F5039",
"H  c #446121",
"J  c #4A6625",
"K  c #4C6D22",
"L  c #4F7024",
"P  c #517226",
"I  c #557827",
"U  c #537529",
"Y  c #57792C",
"T  c #597A2E",
"R  c #507030",
"E  c #5B7D32",
"W  c #66683E",
"Q  c #002B5B",
"!  c #183455",
"~  c #273543",
"^  c #002964",
"/  c #1A3C66",
"(  c #203C65",
")  c #4C3B47",
"_  c #004443",
"`  c #19594A",
"'  c #255050",
"]  c #19406E",
"[  c #345067",
"{  c #5C4A4A",
"}  c #5A5649",
"|  c #525350",
" . c #774D48",
".. c #6A534E",
"X. c #795547",
"o. c #684E51",
"O. c #6A6547",
"+. c #766359",
"@. c #544E64",
"#. c #5B6F68",
"$. c #6C686C",
"%. c #777775",
"&. c #924D2F",
"*. c #824E36",
"=. c #904A32",
"-. c #805D3D",
";. c #9A5334",
":. c #B25C2D",
">. c #A65937",
",. c #8A7432",
"<. c #804F40",
"1. c #8A5842",
"2. c #8A5C4D",
"3. c #955B42",
"4. c #915E4D",
"5. c #855A57",
"6. c #96644B",
"7. c #876F51",
"8. c #936453",
"9. c #A4634B",
"0. c #B56A4A",
"q. c #A56D55",
"w. c #BB7F5F",
"e. c #916E64",
"r. c #8D7B6D",
"t. c #A9746E",
"y. c #A87C72",
"u. c #CA724B",
"i. c #C47756",
"p. c #D37B56",
"a. c #D77F5A",
"s. c #E87B49",
"d. c #F07F4B",
"f. c #7F9245",
"g. c #6D935F",
"h. c #7C8C7A",
"j. c #BD9737",
"k. c #888051",
"l. c #A89D45",
"z. c #BAAD5C",
"x. c #BAB555",
"c. c #8D8675",
"v. c #B48470",
"b. c #ADAA6A",
"n. c #D98255",
"m. c #CA9C50",
"M. c #F2804B",
"N. c #E98758",
"B. c #F28657",
"V. c #D0B657",
"C. c #C88567",
"Z. c #DE9168",
"A. c #DE9379",
"S. c #E18A6C",
"D. c #F48D60",
"F. c #EE916A",
"G. c #E39374",
"H. c #D5AB61",
"J. c #C8BC78",
"K. c #B0CE7F",
"L. c #DED64C",
"P. c #CBC85A",
"I. c #D9DB5F",
"U. c #E0DA5B",
"Y. c #E2E350",
"T. c #C6C464",
"R. c #E7D561",
"E. c #507395",
"W. c #737C8D",
"Q. c #78818E",
"!. c #8B9086",
"~. c #AD9488",
"^. c #95B796",
"/. c #A4A483",
"(. c #A9B48F",
"). c #AAA496",
"_. c #989DA5",
"`. c #98AABB",
"'. c #A6AEB3",
"]. c #C8AC85",
"[. c #D2AE99",
"{. c #EDB096",
"}. c #C9ACA5",
"|. c #C6B8AE",
" X c #D2BEBF",
".X c #DDD887",
"XX c #D2E484",
"oX c #D1C9BC",
"OX c #E7CAB5",
"+X c #CDCBCC",
"@X c #DCCFD5",
"#X c #D6D7DD",
"$X c #F1DFC2",
"%X c #E1DEDD",
"&X c #F4EBDD",
"*X c #C9D6E3",
"=X c #F0F2E4",
"-X c white",
/* pixels */
"U Y U K U P K K P U P U U K K P U L P P T U L P U K L E K K L U ",
"P U L U P K U P K U L Y K U h k R d H Y U L U L K U U U K P Y K ",
"T Y L Y N L K K P L L U K K c./.o /.Z - B c U N K K K U L K U K ",
"U K U E Y P M P E L L U O.7.q .XT.T.z.S J.A V U L N L T U L Y P ",
"N K T U P Y P Y I P K k A K.l.k.I.Y.U.R.V.b.r.m U L Y I P K U P ",
"L K L K P U N N L L P > (.x.x.XXI.L.L.R.j.H.S h U N K P K P K N ",
"U U U U Y U L K J L U d b ^.h.f.XXT.V.P.j.H.].t U L K K L U P K ",
"P U K U K M L I U K P d (.c.+X#.x g.K.x.m.,.y B M L Y U N K U P ",
"P L P L L N U P L K L v | _.#X'.Q ` z W 7.~.$.V N U U K K K U K ",
"T Y Y L K P U P U Y P L & $.W.Q.b _ ' ~   7 } k K U N K U P K K ",
"U T U U U P K L L J l n f '.E.#XoXZ !.+X+.%.o U U P P K P L K K ",
"U m K K L L K K N % ~.[.y.).|. XOX[.].[.oX#X9 g U P K P Y P L U ",
"K U U K U Y L L n c.{.G.4.t OX}.).OX$X&X@X%.w o.$ n L P U P P P ",
"U U L P L P L L n +.C.:.:.s &X-X-X-X=X%X!.  a q.=.. m Y L K Y U ",
"Y Y L U K K P L K & 6.Z.B.N.{.).*X*X`.[ . 7 p 3.=.X.7 m K P U K ",
"Y L K K K K N K U n & 6.i.n.i.8.p ..5.X.5.8.  r 1.8.7.l L K Y P ",
"N K L P L U P U U U U H X p a F y w.F.F.p.>.D   a y.e.n N K Y P ",
"L L K J L U K L U K K L K H j u ;.s.s.N.n.9.4.n c B 9 J P K L K ",
"P P P P Y Y K N K L U K d a F e v.A.G.C.1.F a V Y K K K L P K K ",
"U T P P L K P h 9 : L k w 9.0.D i p p e . 0 p n K K P L L K L P ",
"U L K U P m H % r.o.: 9 G ;.>.6.e 5. .0.0.q.5.J M f l J N P P P ",
"U P Y K K P m # !.o.  { 8.>.;.G X.A.G.D.F.0.$ : - 5 ~ & K P K K ",
"U T Y U L P H   @.@.O q +.2.-.w & w.B.d.B.u.s 8.) / ( ~ d K K K ",
"U K L L K U P = 2 2 4 , q q e k H o.S.d.M.D.a.a.5.^ / ! ! J K K ",
"K K U J L P P g @ 6 3 5 , o n P L * 9.n.N.n.u.>.t.@.Q ] ! - U U ",
"U Y U L P U P P > @ 1 < # N P P I k w *.6.>.&.&.y.o.2 / ! = P U ",
"U U L U L P P P L - O o m U P U U U K : p u 6.<.C 8 , ~ #.= U K ",
"E U L Y K P N P U P K U P K K L L K I T Y f 9 > ;   @ 1 h.| L P ",
"P K Y E T P N L U U P U P L P U L K U L K I E T L H g + r.| L L ",
"N L Y L L U P P I L N U L U L N L K L K L Y P K U L U g 9 : L L ",
"U K P L U U N N L L U K N U U L L K L U K L L U U J K K L Y K J ",
"P Y U U U P P L L L P P L U Y U L K K P Y U P U P L K L L P L L "
};
