/* XPM */
static char *result[] = {
/* columns rows colors chars-per-pixel */
"32 32 172 2 ",
"   c #040201",
".  c #090D02",
"X  c #061905",
"o  c #111C05",
"O  c #010213",
"+  c #1A0C1A",
"@  c #00161B",
"#  c #1E1216",
"$  c #182607",
"%  c #003F11",
"&  c #263718",
"*  c #23361F",
"=  c #000427",
"-  c #02112D",
";  c #031635",
":  c #121E36",
">  c #1A283C",
",  c #00323B",
"<  c #312524",
"1  c #3B2D2C",
"2  c #273422",
"3  c #263929",
"4  c #363823",
"5  c #283330",
"6  c #393837",
"7  c #652F0E",
"8  c #7B2B00",
"9  c #47382C",
"0  c #643D31",
"q  c #2E4317",
"w  c #344C15",
"e  c #375017",
"r  c #3A531A",
"t  c #3F5A1E",
"y  c #3A4622",
"u  c #3F5722",
"i  c #415D1D",
"p  c #45641E",
"a  c #47681D",
"s  c #496A1F",
"d  c #5B4C21",
"f  c #474433",
"g  c #5D453F",
"h  c #4D5239",
"j  c #5B5A37",
"k  c #664720",
"l  c #665B3E",
"z  c #466322",
"x  c #496625",
"c  c #4C6D22",
"v  c #4E6D28",
"b  c #526F2C",
"n  c #4F7024",
"m  c #517226",
"M  c #557827",
"N  c #537529",
"B  c #56782C",
"V  c #597A2E",
"C  c #4F6036",
"Z  c #5B7D31",
"A  c #02044A",
"S  c #132648",
"D  c #002854",
"F  c #213B4D",
"G  c #22395B",
"H  c #443C44",
"J  c #503F40",
"K  c #374545",
"L  c #33504C",
"P  c #234161",
"I  c #59564A",
"U  c #465B5D",
"Y  c #644A45",
"T  c #754E4A",
"R  c #6B5247",
"E  c #725047",
"W  c #5F6047",
"Q  c #666258",
"!  c #7A665C",
"~  c #635F61",
"^  c #666A6D",
"/  c #73656C",
"(  c #7B7867",
")  c #667275",
"_  c #884A33",
"`  c #A24E29",
"'  c #BF6C3F",
"]  c #844D4D",
"[  c #8D5F4D",
"{  c #975846",
"}  c #856943",
"|  c #82784C",
" . c #8A675D",
".. c #906659",
"X. c #B26B4C",
"o. c #A36A58",
"O. c #B97454",
"+. c #897067",
"@. c #897A77",
"#. c #A57368",
"$. c #B37B6A",
"%. c #BA7D69",
"&. c #C7704B",
"*. c #D37547",
"=. c #CF7B58",
"-. c #DA7C53",
";. c #E3784D",
":. c #668E4A",
">. c #C6BA33",
",. c #9B9252",
"<. c #A18544",
"1. c #BA9748",
"2. c #B4AE40",
"3. c #A8AF5A",
"4. c #8D8569",
"5. c #94886A",
"6. c #BC8569",
"7. c #AC9462",
"8. c #AF9269",
"9. c #87A76D",
"0. c #B4AF77",
"q. c #B7B679",
"w. c #D7835E",
"e. c #C69D58",
"r. c #CBAB58",
"t. c #D1B550",
"y. c #C88571",
"u. c #D48976",
"i. c #CD9178",
"p. c #C0A461",
"a. c #DCBD78",
"s. c #B2D072",
"d. c #D7C649",
"f. c #DDDA48",
"g. c #E1D947",
"h. c #E2D655",
"j. c #D7E75E",
"k. c #DFE658",
"l. c #D7C966",
"z. c #D4CB74",
"x. c #747386",
"c. c #6D8187",
"v. c #96848C",
"b. c #8B9295",
"n. c #A48080",
"m. c #AE9787",
"M. c #B6918E",
"N. c #ADAB96",
"B. c #BDA094",
"V. c #A09AA5",
"C. c #C28D85",
"Z. c #CA928A",
"A. c #C4AC9C",
"S. c #E4A896",
"D. c #E1B497",
"F. c #C0B2AD",
"G. c #D6B3AC",
"H. c #D1BDBB",
"J. c #E7BBAF",
"K. c #F5B5A4",
"L. c #D9E38D",
"P. c #F4C9A8",
"I. c #DDBAC2",
"U. c #BDC7C8",
"Y. c #D6C7C3",
"T. c #CCC7D5",
"R. c #CFD3D2",
"E. c #E3D3C4",
"W. c #E6DCD4",
"Q. c #EEE3DA",
"!. c #FDF7E3",
"~. c #FBFBF6",
/* pixels */
"N B N c N m c c m b m m B c c N N c N N B N m m N s m V c c n N ",
"m N n N m c N m c N m B c N N N B N N N N m m m s N N N n m V c ",
"V B n B s c c c m n n N n m c c v m B V B v N c m c s N c n N c ",
"N c N Z V m a m V n m N m c b i x i i b c N Z B m a m V m m N m ",
"a n B N m M m B M m s N b v e 0.| 6 4.$ f p B N N m B M N c N m ",
"m a m c m N a c m n m c w } } z.2.z.7.k 7.$ r c N a c m c m c a ",
"N N N N N N n c c n i W d a.r.d.h.g.1.e.1.( I N B n s c m N m c ",
"m N c N n a n B N c q ,.l.t.h.g.d.e.p.<.4.( o b a n V N s c N m ",
"m m m n n a N m n p ( z.>.f.f.k.l.8.l ^ U.c.5 n a N N c c n N s ",
"V B B c c m N N N v h 6 3.k.j.s.9.L @ U.R.) K z n M c c m m c c ",
"N Z m N m N c m c N w q.L.s.:.% , , U b.c./ u M N m m s m n c c ",
"N a c c m m a c c N c j :.X ) N.( 4.Y.T.x./ z n N m s N B N m N ",
"c v N c m B m n B c m c @ 4.m.D.D.P.J.H.v.f i c N n n m N m m m ",
"B N n m n N n m n N n v N.!.I.T i.Z.C.#. .@.z N m n m B m s B N ",
"B B n N c c m n c m m c Q W.~.W.H.Y.A.B.G.m.p c m m n n s m N n ",
"B n c c a n a c N c n B r F U.~.~.Q.E.W.F.9 z m c a n n m c B m ",
"c a m m m N m N N m c V i +.. ~ @.@.@.@.<   v B N m B m c c B m ",
"m m c a m B s M V n c c e i.6.%.u.u.%.8 o.R i c N c m N m c m c ",
"m m m N N B s a c n N c e $.' *.;.;.&.` X.E z B B c z c n m c c ",
"N V v n n c m N m s c N r g O.w.-.-.O._ [ 1 i v c c m m n c n m ",
"m m c m m a m V m c s N v X Y %.*.=.#.  1 $ m m a c m c a m m m ",
"N m V c s m N s s m m c x 4 Y Z.K.S. .g g x n x m m c c c N m a ",
"N V N N m m N m m N c m c q  ...M.n.T Y y N N n m m c c N n c c ",
"N c n m c N N a c N m c c r [ i.7 0 ..Y q n N n V m m n N N c c ",
"c c m c c N n c N m N m N 4 X.&.` { T 9 f C c v V m c m N V m N ",
"N B N m m N m m N c c N r 1 %.y.{ ] 0 l 5.I t N m c c V N s N m ",
"N N m m n m N m n n m B x o ) V./ H O + # 2 v c c m m m s m V s ",
"Z N n B c n c n m m n m v 2 D A = - - 5 . x V c n s n N m n N m ",
"m c B Z B m s n N N n B r > P G S > = ~ ( W B Z m s m V m m B m ",
"s n B n n N n m M m a N r > G S ; : = H ! J i c N m M N m a m n ",
"N c n n N N s c n n N s s q 3 2 * * & & $ w n m N s s m n N c a ",
"N B N N N N m c n n m m m B B N m n c m B N N N N m c c m m m m "
};
