/* XPM */
static char *result[] = {
/* columns rows colors chars-per-pixel */
"32 32 189 2 ",
"   c #000000",
".  c #050C06",
"X  c #0F1804",
"o  c #090A16",
"O  c #00011C",
"+  c #091415",
"@  c #181A18",
"#  c #22000F",
"$  c #271A05",
"%  c #002600",
"&  c #1C2B0B",
"*  c #1A2715",
"=  c #202F0C",
"-  c #22330C",
";  c #2B3C0F",
":  c #36211E",
">  c #2A3D12",
",  c #313B1B",
"<  c #040B27",
"1  c #0A1626",
"2  c #00142D",
"3  c #14172C",
"4  c #081937",
"5  c #161D34",
"6  c #301C24",
"7  c #002537",
"8  c #13223B",
"9  c #272326",
"0  c #38292D",
"q  c #2E3821",
"w  c #35372C",
"e  c #2D2D3D",
"r  c #3D3636",
"t  c #5C2F1F",
"y  c #4A2C24",
"u  c #49372E",
"i  c #583929",
"p  c #593932",
"a  c #693727",
"s  c #2E4414",
"d  c #2D411B",
"f  c #334B15",
"g  c #344A16",
"h  c #385218",
"j  c #3E591D",
"k  c #3D5820",
"l  c #3E4D37",
"z  c #415D1E",
"x  c #45651D",
"c  c #47681E",
"v  c #496A1F",
"b  c #4B4B2F",
"n  c #425D22",
"m  c #4D463B",
"M  c #684736",
"N  c #63433B",
"B  c #6C513A",
"V  c #476421",
"C  c #486622",
"Z  c #4C6D23",
"A  c #4D682C",
"S  c #4F7024",
"D  c #517226",
"F  c #557827",
"G  c #537529",
"H  c #56782C",
"J  c #597A2E",
"K  c #5B7B32",
"L  c #796835",
"P  c #000942",
"I  c #0C2A4F",
"U  c #3C3446",
"Y  c #0D3762",
"T  c #1A3864",
"R  c #044F51",
"E  c #304D4A",
"W  c #2B4163",
"Q  c #43494C",
"!  c #584645",
"~  c #564F51",
"^  c #664941",
"/  c #7B4C47",
"(  c #6F5249",
")  c #7D5446",
"_  c #675856",
"`  c #4B6C4F",
"'  c #606240",
"]  c #757744",
"[  c #68625C",
"{  c #79785D",
"}  c #55606F",
"|  c #656567",
" . c #766964",
".. c #74797A",
"X. c #863D19",
"o. c #8F492D",
"O. c #9F5321",
"+. c #84483C",
"@. c #89513D",
"#. c #955639",
"$. c #A7593C",
"%. c #B4653E",
"&. c #CB6532",
"*. c #895A4E",
"=. c #955949",
"-. c #A85C47",
";. c #87674E",
":. c #91665F",
">. c #8A7A51",
",. c #A66448",
"<. c #B06142",
"1. c #A26B51",
"2. c #AD6B54",
"3. c #B57754",
"4. c #BD7057",
"5. c #85756C",
"6. c #8B726C",
"7. c #977878",
"8. c #A5716D",
"9. c #AF7B6E",
"0. c #B97766",
"q. c #C56C4C",
"w. c #D5764D",
"e. c #CE7D55",
"r. c #C37F65",
"t. c #7D826A",
"y. c #BB9631",
"u. c #98935E",
"i. c #B98B42",
"p. c #A7A359",
"a. c #B0B35B",
"s. c #9A816B",
"d. c #B79B67",
"f. c #B0926F",
"g. c #B98577",
"h. c #A2917D",
"j. c #97AF6E",
"k. c #A8A768",
"l. c #B2B16D",
"z. c #B9B677",
"x. c #EA895D",
"c. c #CDB447",
"v. c #C2B351",
"b. c #D0B55D",
"n. c #CA8569",
"m. c #C38975",
"M. c #D78D78",
"N. c #C09871",
"B. c #E78C63",
"V. c #F49167",
"C. c #CEAE69",
"Z. c #CDD040",
"A. c #D4CB5E",
"S. c #DADC53",
"D. c #E7DA5E",
"F. c #E2E349",
"G. c #C6C867",
"H. c #DDDD6F",
"J. c #D9C975",
"K. c #EBD165",
"L. c #DCEA6C",
"P. c #777982",
"I. c #778081",
"U. c #8F8E89",
"Y. c #AD8985",
"T. c #A8938C",
"R. c #AA9C89",
"E. c #B4998A",
"W. c #A39192",
"Q. c #B99E93",
"!. c #99A194",
"~. c #B2A480",
"^. c #BEAE99",
"/. c #8B94A0",
"(. c #9798A5",
"). c #A7ABAD",
"_. c #A7BDAC",
"`. c #BCB5B7",
"'. c #DC9987",
"]. c #CFBCB7",
"[. c #ECB8AC",
"{. c #AFC6B5",
"}. c #DCD892",
"|. c #E2CCBD",
" X c #C8C7CF",
".X c #D0CFC8",
"XX c #E3D0C9",
"oX c #EDE0DD",
"OX c #F4F2EA",
/* pixels */
"G H G Z G D v S D G D G G Z Z D Z z K V A G S G F Z S J Z C D G ",
"D G D G D Z G D Z G D H Z n h j l t.s { ' S S S v G G G S D H S ",
"J H S H v S Z Z G Z Z G Z q f.  u.l.p.}.m k A Z S Z Z G S S G S ",
"G Z G K H D c D J S G G m >.J.v.A.S.H.>.L z.d H S v S J S S H S ",
"v Z J G D F D H F G v Z m C.c.K.D.F.Z.l.J.k.{ V G S H F G C G S ",
"D v S Z D G v v D S D g ;.C.y.K.c.S.L.G.] z.' V G c S S S S S Z ",
"G G G G H G D Z Z Z D - R.d.i.b.G.a.j.` {.U.U C F S C S S F S S ",
"D G Z G Z c S F G v S A   ;.d.k.j.` . _.{.!.t.C x S H F Z S S S ",
"D D D S D v G D D S Z G [ h.b % 7 R E {. X..  w h G G Z S Z G Z ",
"J H H Z v D G D G G G x 9     ..W I I.P.} E ! 7.9 S v Z D D Z Z ",
"G K G G G G Z D Z D Z Z . (.W..X~.5.oX X(.U./ Y._ Z D v D D v Z ",
"G x Z Z S D v Z Z D V w Q `.|.d.J.|.[.].].6.2.8._ v Z G G G D G ",
"Z D G Z D H D z k u a ^..X).XXE.m.[.9.[.T.a 2.*.& Z S F G G D G ",
"H G S D S G h _ ^.g.3.'.OXOX`.OX|.9.0.g.  ;.M $ S D D F D v H D ",
"G H S G Z Z ; Q.|.M.&.e.~.~ U  XoXXX4.].| $ g Z D D D Z v D G Z ",
"H S Z Z Z Z , 6.[.r.q.-.a   O   (.W.a 5.l Z G D Z C S S D S H D ",
"v Z S D D G z r ! p a t u ) ( U   #.9.  j H H G G D G G Z Z H D ",
"D S Z C D F v S Z z V v N ,.,.m.g.e.n.& Z H Z Z D S D H D Z S Z ",
"D S S G G H S C * @ d v M #.w.V.B.e.N.s j n G H H Z Z Z S D Z Z ",
"G J D D S Z S * 1 5 3 - ! :.1.0.*.M ! ) r.M k A Z Z S S S S S D ",
"G S Z G S c V 1 5 2 1 r 0 6 #   0 y B M.V.e.  V h w q C v S G S ",
"G D H Z Z G d 2 4 2  .s.M t ^ *.r.B.B.B.w.q.2.0 O !.| > v G Z Z ",
"G J G G S C @ < 4 e 6.=.=.+.*.r.B.x.w.-.$.e.'._ I /.| s D Z Z Z ",
"G Z D S S z O U 2 3 / -.$.o.X.O.%.<.+.a 1.[.'.P W } 5 d F G Z S ",
"Z Z G C Z z ~ [ < O ) ,.o.$.o.o.+.u g & 5.W.< Y Y T 3 k G G G G ",
"G H G D G z  .[   . i ) @.<.-.*.X n G G h   5 I T 8 * H G Z G G ",
"G G D S S z _ ~ ; G ; = N =.;.: C H G H A 9 4 4 8 1 n D S D H v ",
"K G S H Z v s f G D S G h g g z Z Z G H H n o 5 1 + C G Z S G S ",
"D Z H K H D v S G G S G D D D D S Z H S Z F k o + x G H D S H S ",
"v S H S S G S D F S v G S D S c D C S Z S J G Z G S G F D v G S ",
"D Z S S H G v v S S G Z v D G D S Z S G C S Z G G v v S Z H v v ",
"D J G G G D D S S S D D S H H D D S C D J G D G G S Z S S G D S "
};
