/* XPM */
static char *result[] = {
/* columns rows colors chars-per-pixel */
"32 32 186 2 ",
"   c #000000",
".  c #020807",
"X  c #0F1A04",
"o  c #020514",
"O  c #0E1016",
"+  c #0C141C",
"@  c #1A2808",
"#  c #1C2B15",
"$  c #22330C",
"%  c #292713",
"&  c #322D14",
"*  c #293918",
"=  c #050825",
"-  c #061A28",
";  c #181923",
":  c #000035",
">  c #021937",
",  c #121D39",
"<  c #162126",
"1  c #122333",
"2  c #282823",
"3  c #342D22",
"4  c #392923",
"5  c #313324",
"6  c #373D2D",
"7  c #242B3D",
"8  c #3E3936",
"9  c #4A2B12",
"0  c #4B2E22",
"q  c #502F21",
"w  c #493426",
"e  c #573528",
"r  c #463B3A",
"t  c #533B34",
"y  c #673327",
"u  c #2D4115",
"i  c #314716",
"p  c #344C16",
"a  c #374E19",
"s  c #39491D",
"d  c #385117",
"f  c #3B541B",
"g  c #3E591C",
"h  c #004633",
"j  c #384727",
"k  c #3D5323",
"l  c #2B5D34",
"z  c #415D1E",
"x  c #45641E",
"c  c #48681F",
"v  c #496A1F",
"b  c #425B21",
"n  c #494238",
"m  c #56473A",
"M  c #555935",
"N  c #694A3A",
"B  c #734938",
"V  c #69523F",
"C  c #486621",
"Z  c #4C6D23",
"A  c #4F6D29",
"S  c #506F26",
"D  c #4F7024",
"F  c #517226",
"G  c #557827",
"H  c #537529",
"J  c #57782C",
"K  c #597A2E",
"L  c #567730",
"P  c #5C7D32",
"I  c #68633D",
"U  c #092A46",
"Y  c #182E4F",
"T  c #032D50",
"R  c #113355",
"E  c #0B3867",
"W  c #213D61",
"Q  c #523F4E",
"!  c #175850",
"~  c #3E474D",
"^  c #2C524F",
"/  c #494646",
"(  c #525253",
")  c #6A4D46",
"_  c #61574B",
"`  c #7A5447",
"'  c #556647",
"]  c #6B6952",
"[  c #545964",
"{  c #725A61",
"}  c #69696E",
"|  c #776C6B",
" . c #7E716E",
".. c #8D4624",
"X. c #924D2F",
"o. c #814432",
"O. c #9F4F31",
"+. c #8E5A3D",
"@. c #985839",
"#. c #A75835",
"$. c #82693E",
"%. c #AF683D",
"&. c #864F44",
"*. c #855645",
"=. c #975746",
"-. c #915D50",
";. c #A55E49",
":. c #956248",
">. c #99614A",
",. c #866459",
"<. c #936957",
"1. c #8A7453",
"2. c #9E735E",
"3. c #B86D4C",
"4. c #A0704F",
"5. c #B16B52",
"6. c #BF6D51",
"7. c #88666A",
"8. c #96766B",
"9. c #A97465",
"0. c #B77D68",
"q. c #D4754C",
"w. c #C57656",
"e. c #728D6F",
"r. c #878028",
"t. c #AF922A",
"y. c #C1A533",
"u. c #A89854",
"i. c #B9B458",
"p. c #81826D",
"a. c #B98270",
"s. c #B19171",
"d. c #B2A36E",
"f. c #B2B37C",
"g. c #CE855F",
"h. c #C39F5B",
"j. c #E7855A",
"k. c #E98C5C",
"l. c #F68657",
"z. c #ED905B",
"x. c #C6B94C",
"c. c #CC846B",
"v. c #D09065",
"b. c #E88862",
"n. c #EC9874",
"m. c #F09370",
"M. c #D7BC67",
"N. c #C2AE71",
"B. c #BDCA7D",
"V. c #D6CE52",
"C. c #DBC559",
"Z. c #CFDB5D",
"A. c #DED95B",
"S. c #E6DB58",
"D. c #D7DE61",
"F. c #D0D772",
"G. c #D1E579",
"H. c #777A81",
"J. c #7F858D",
"K. c #6C8B9F",
"L. c #74809C",
"P. c #848889",
"I. c #8F938B",
"U. c #A68088",
"Y. c #A79682",
"T. c #98A690",
"R. c #B1B095",
"E. c #9C91A4",
"W. c #96A6A9",
"Q. c #E6B498",
"!. c #C8B0A2",
"~. c #D4BBB2",
"^. c #BECCB3",
"/. c #D9D792",
"(. c #D7C5AF",
"). c #A2B6C4",
"_. c #B1C1C6",
"`. c #CBC9C8",
"'. c #DFCECA",
"]. c #D3D1CA",
"[. c #CFD2D5",
"{. c #E1CCC4",
"}. c #EAD8C9",
"|. c #F6EBD8",
" X c #EDECE7",
".X c #FEFFFE",
/* pixels */
"H J H Z H F Z Z S H F H H Z Z H H Z A H H H D D H Z D K Z Z D H ",
"F H D H F Z H F Z H F J Z H H H J H H H H D H F Z F H H D S J Z ",
"K J D J v F Z Z S D Z H Z H Z C b L Z A J H H Z D Z Z H D D H D ",
"H Z H P J Z v F P D S J b u a j e.$ p.] D H P J D v D K D D J D ",
"v Z J H F G F J G F Z C 2 N.e u.N.i./.~ I C H H G D G G H Z H D ",
"F v D Z F H v v H Z Z _ s.C.V.S.S.D.r.t.f.5 C Z H C Z D D D Z Z ",
"H H H H H H F Z Z Z C 3 h.y.S.A.S.Z.F.V.f.R.g J H D Z Z D G D Z ",
"F J Z H F c D G J Z @ d.M.t.C.x.V.G.e.p.T.5 x D c D J H Z D F F ",
"F D F D D v H D D D s M $.h.i.B.e.l J.^.T.I.f F C H F Z Z D F Z ",
"J J J Z Z F H F H J A 8 Y.1._ h ! U _.`.T./ c v Z G Z Z D F Z Z ",
"H J H H F H D D Z H C n 3   ~ ^ h ( J.H.[ a H H J F D Z F D Z Z ",
"H c Z Z D D Z Z Z H J * P. .(.Y.' ].[.L.E.p g f D S D H G H D H ",
"Z H H Z H J D D J Z s @ `.'.!.!.(.(.!.~.I.1.s.8.$ D D H H F F H ",
"H J D F D F D D z % ) m r `. X|.{.(.{.(.  +.v.Q.] Z F G D Z J F ",
"H J S H Z Z D x . B 5.)   ( `. X.X.X.X}...6.3.0.j A D D D H H D ",
"J D Z Z Z Z v 3 +.X.=.t t > : K.).W.2.n.j.m.c.9 f A D Z D D H D ",
"Z Z D D D F D _ 9.+.q   ,.5.0.6.@.e <.w.6.-.w k H D H G Z Z H F ",
"D D D Z D G v 8 7.) @ N @.q.l.l.w.e e * j a Z D G D F G S D S D ",
"D D F F J J Z f g g Z N ;.w.b.b.j.5.0 j k L S H H Z C D D F D Z ",
"H K S S A Z F J D Z v 5 2 + 7.0.a.8.e >.B $ A H g C D D D Z D F ",
"F S D F S v S H S Z C _ *.o.y       +.;.:.e g i / / i D v F F D ",
"H F J D Z S D # < a g w 6.b.b.a.s.V >.O.@.` 5    .| X Z Z F D Z ",
"H L H H D D # Y W > n . #.l.q.z.g.4 B @.@.,.r   } / @ Z F D Z Z ",
"F D S S Z * U W E Q 0.w.j.l.l.k.4.d % N _ / = , 7 o * D H H Z D ",
"D Z F Z x 1 W E R 7.6.q.j.j.b.w.& D S * o > , > > + x F H J H H ",
"H H H F a U T Y 7 U.=.O.%.3.;.y k F F H f = , 1 - p D K H v H F ",
"H H S F a [ }   7 { &.-.B N % k H H J H H p O O * H F F Z F J Z ",
"P G D L p P.}   ; @ & n $ C b Z Z Z J K J A Z x F v v H Z Z H F ",
"S Z J P f J.[ X k J F H F F F F F Z J Z v J P K F v F J F F G F ",
"v D J S a j 6 C G F c H F F D c F Z D Z Z J F D H H H H F v H F ",
"F D S Z H H c Z Z F H v v F H F D Z Z H Z F D H G v v F v H v v ",
"H J H H H H S Z D D H F F H K F D Z Z F K H F F H F Z F F H F F "
};
