/* XPM */
static char *_2857_61e3366c0669ad63ae3373fe29de769f7e8f2875aac6742add55696878e7abd9[] = {
/* columns rows colors chars-per-pixel */
"32 32 127 2 ",
"   c #18001C",
".  c #1E0322",
"X  c #200524",
"o  c #250A29",
"O  c #270C2B",
"+  c #280D2C",
"@  c #290E2D",
"#  c #2A0F2E",
"$  c #2D1231",
"%  c #2F1433",
"&  c #301534",
"*  c #311635",
"=  c #321736",
"-  c #331837",
";  c #341938",
":  c #351A39",
">  c #361B3A",
",  c #371C3B",
"<  c #381D3C",
"1  c #391E3D",
"2  c #3A1F3E",
"3  c #3B203F",
"4  c #3C2140",
"5  c #3D2241",
"6  c #3E2342",
"7  c #3F2443",
"8  c #402544",
"9  c #412645",
"0  c #422746",
"q  c #432847",
"w  c #442948",
"e  c #452A49",
"r  c #462B4A",
"t  c #472C4B",
"y  c #482D4C",
"u  c #492E4D",
"i  c #4A2F4E",
"p  c #4B304F",
"a  c #4C3150",
"s  c #4D3251",
"d  c #4E3352",
"f  c #4F3453",
"g  c #503554",
"h  c #513655",
"j  c #523756",
"k  c #533857",
"l  c #543958",
"z  c #553A59",
"x  c #563B5A",
"c  c #573C5B",
"v  c #583D5C",
"b  c #593E5D",
"n  c #5A3F5E",
"m  c #5B405F",
"M  c #5C4160",
"N  c #5D4261",
"B  c #5E4362",
"V  c #5F4463",
"C  c #604564",
"Z  c #614665",
"A  c #624766",
"S  c #634867",
"D  c #644968",
"F  c #654A69",
"G  c #664B6A",
"H  c #674C6B",
"J  c #684D6C",
"K  c #694E6D",
"L  c #6A4F6E",
"P  c #6B506F",
"I  c #6C5170",
"U  c #6D5271",
"Y  c #6E5372",
"T  c #705574",
"R  c #715675",
"E  c #725776",
"W  c #735877",
"Q  c #745978",
"!  c #755A79",
"~  c #775C7B",
"^  c #785D7C",
"/  c #795E7D",
"(  c #7A5F7E",
")  c #7B607F",
"_  c #7C6180",
"`  c #7D6281",
"'  c #7E6382",
"]  c #7F6483",
"[  c #826786",
"{  c #846988",
"}  c #856A89",
"|  c #876C8B",
" . c #886D8C",
".. c #8A6F8E",
"X. c #8B708F",
"o. c #8C7190",
"O. c #8E7392",
"+. c #8F7493",
"@. c #917695",
"#. c #927796",
"$. c #937897",
"%. c #947998",
"&. c #957A99",
"*. c #967B9A",
"=. c #977C9B",
"-. c #987D9C",
";. c #997E9D",
":. c #9A7F9E",
">. c #9B809F",
",. c #9C81A0",
"<. c #9D82A1",
"1. c #9E83A2",
"2. c #9F84A3",
"3. c #A085A4",
"4. c #A186A5",
"5. c #A287A6",
"6. c #A388A7",
"7. c #A489A8",
"8. c #A58AA9",
"9. c #A68BAA",
"0. c #A78CAB",
"q. c #A88DAC",
"w. c #A98EAD",
"e. c #AA8FAE",
"r. c #AB90AF",
"t. c #AC91B0",
"y. c #B196B5",
/* pixels */
"8.3.3.q.e.6.>.-.<.x   x q.4.=.6.0.*.4.t.,.-.8.7.0.3.<.3.4.2.5.0.",
"G S B M C L ! ` Y O.F 8 f D U N n Z ~ { ~ K S N m l j v B V V A ",
"f c x a d D _  .J X.K u f z c i g Z D M c g p g g e 9 u k z k h ",
"h G I m k C Y R m c < p L n h l I ) J f z b v S S j t s b N n x ",
"l P W C f g h p k J d y n v m M n I C j C A z z A d 7 q g c c z ",
"j C G N z c n v L ) c r h f v V f v x l N V v x n t 1 6 s c b n ",
"y i s d g k x c b z = 5 j 8 0 k b j l z p a v N d 7 > 5 u g h j ",
"c g a g g y 9 7 % a 8 r x i a l d q j v 3 & 8 r k y 0 u j l j g ",
";.2.-.;.9.#.l X d 3.7.@.<.2.3.,.*.5.1.-.b o j *.>.0.$.r.r.| -.8.",
"Z D S N N B g < N @._ Z J F S V P V b ( X.z s M Z G C v Y ' J v ",
"k f n n a l v 9 l Y h q j h j f B f i K 3.n d M z g m w Z | m s ",
"C s n A j b v * d N i h S N V N v z z B =.q r J z l M l C K l V ",
"G j B D g c M 6 v S v C S l b c v x c H r.n d B x L v v b s b m ",
"x n E ! v s d 9 d b l n j y n M b m c A O.j a x A { C x M m Y k ",
"q h S F k 8 : * 5 p a j e 9 b x i z p u i # 2 s v K b i f l l d ",
"c l y r g d y a 0 h k k 5 * 8 & f v p k a 9 d j s 8 l a t 6 $ m ",
";.1.>.1.w.6.*.*.4.*.5.3.X.z - p -.;.:.>.<.1.:.%.,.5.2.2.s + u 8.",
"H P V l m Z F T P b n A ^ | f t F G G G H J G D J Z M A p 7 e A ",
"P ~ I v k f i f k k l d C 4.M s h j j h g f h l w x L B z u h k ",
"h A Z b N V b m g n m g g <.h u m n n n v z b V 2 b ] S k 1 j M ",
"f l i r k b v B b v h n C 1.l g n x c m n z x M z l F z b 9 l B ",
"F A m C K M d l c V c D v G 7 i M z x C A n x b K b v l j 7 i n ",
"u t d H E b i n w M d z 8 O @ , M k z F P C z k s f d h 2 * > d ",
"z y w l l , = k s M 4 s B r c u s 0 e v A z e 8 2 r q z w h i z ",
">.t.7.+.h . g %.,.8.1.=.<.<.>.5.t.} >.y.:.3.&.f O b $.7.&.&.3.2.",
"M B f ( &.n w P m G D S K D M C L B / [ D H U p & y c N L Q H j ",
"k G t F %.C 5 V s z k j n z s j p g Z V p s v j 0 P P h h z d d ",
"J o.U x n y a C C Z v c C N n F n N v k b M v z y ..+.A k f k I ",
"M H V c e u A j v x d g m x h M b V l g C A z j 5 Y L f b N j n ",
"M y h J y 2 N x z c x Z U Z k b r c n c m b l c , k k p B D c k ",
"v f d M 8 + r z z x c G W D k v 3 y k k g g f s < y k l k k z c ",
"- e = = 7 > 1 2 4 < : 9 f q > 7 > ; 2 8 8 e 9 % < * < 7 2 2 6 3 "
};
